<svg width="283.402" height="79.8" viewBox="0 0 283.402 79.8" xmlns="http://www.w3.org/2000/svg"><g id="svgGroup" stroke-linecap="round" fill-rule="evenodd" font-size="9pt" stroke="#000" stroke-width="0.25mm" fill="#000" style="stroke:#000;stroke-width:0.25mm;fill:#000"><path d="M 24.901 46.3 L 24.601 46.2 Q 18.801 45.8 13.601 41.3 Q 9.325 37.711 8.314 33.539 A 11.167 11.167 0 0 1 8.001 30.9 A 10.224 10.224 0 0 1 10.138 24.67 A 14.279 14.279 0 0 1 11.501 23.1 Q 21.901 12.4 44.201 11.5 Q 44.301 10.1 44.351 8.8 Q 44.401 7.5 44.401 6.2 L 44.401 5.05 A 11.011 11.011 0 0 0 44.39 4.562 Q 44.367 4.056 44.301 3.4 Q 44.212 2.595 44.203 1.95 A 10.25 10.25 0 0 1 44.201 1.8 L 44.201 0.7 A 1.83 1.83 0 0 1 44.216 0.462 Q 44.249 0.207 44.364 0.093 A 0.322 0.322 0 0 1 44.601 0 A 0.078 0.078 0 0 1 44.651 0.025 Q 44.739 0.106 44.879 0.445 A 5.758 5.758 0 0 1 44.901 0.5 Q 45.701 4.9 45.501 11.5 L 47.401 11.4 A 11.163 11.163 0 0 0 48.163 11.373 A 12.957 12.957 0 0 0 48.451 11.35 A 12.112 12.112 0 0 1 49.216 11.304 A 10.431 10.431 0 0 1 49.501 11.3 Q 52.701 11.3 55.851 11.75 Q 59.001 12.2 62.101 12.9 A 22.53 22.53 0 0 1 66.204 9.775 Q 69.93 7.6 73.901 7.6 A 8.051 8.051 0 0 1 79.723 10.023 A 10.322 10.322 0 0 1 79.801 10.1 A 8.097 8.097 0 0 1 82.199 15.869 A 10.63 10.63 0 0 1 82.201 16.1 A 5.164 5.164 0 0 1 82.187 16.509 Q 82.116 17.4 81.701 17.4 Q 81.502 17.4 81.004 14.714 A 68.521 68.521 0 0 1 81.001 14.7 A 4.476 4.476 0 0 0 80.234 12.485 Q 79.063 10.841 76.175 10.559 A 13.098 13.098 0 0 0 74.901 10.5 Q 71.821 10.5 68.428 12.746 A 22.571 22.571 0 0 0 66.601 14.1 A 34.256 34.256 0 0 1 73.189 16.893 A 29.036 29.036 0 0 1 76.701 19.2 Q 81.901 23.4 81.901 28.6 A 9.881 9.881 0 0 1 78.404 36.171 Q 77.013 37.433 75.068 38.499 A 23.404 23.404 0 0 1 74.501 38.8 A 29.54 29.54 0 0 1 67.404 41.292 A 39.437 39.437 0 0 1 61.601 42.1 Q 77.338 49.406 80.44 58.904 A 15.352 15.352 0 0 1 81.201 63.7 A 11.94 11.94 0 0 1 77.293 72.719 A 15.787 15.787 0 0 1 76.401 73.5 Q 71.501 77.5 65.401 77.5 A 66.35 66.35 0 0 1 57.723 77.079 Q 53.808 76.622 50.433 75.67 A 38.255 38.255 0 0 1 49.201 75.3 Q 48.801 75.1 45.051 73.55 Q 42.18 72.363 37.346 70.385 A 5848.294 5848.294 0 0 0 34.201 69.1 Q 28.901 75.5 24.101 77.5 A 19.022 19.022 0 0 1 21.082 78.631 A 25.318 25.318 0 0 1 18.301 79.25 Q 15.001 79.8 10.901 79.8 Q 7.201 79.8 3.801 77.3 A 11.207 11.207 0 0 1 1.88 75.668 Q 0.001 73.631 0.001 71.1 A 6.933 6.933 0 0 1 1 67.37 Q 2.168 65.486 4.701 64.3 Q 8.201 62.5 13.201 62.5 Q 18.244 62.5 24.34 64.203 A 61.398 61.398 0 0 1 25.701 64.6 A 47.701 47.701 0 0 0 30.086 58.776 A 60.717 60.717 0 0 0 32.801 54.1 A 85.642 85.642 0 0 0 36.212 46.731 A 109.806 109.806 0 0 0 38.601 40.3 Q 40.901 33.5 42.251 26.65 Q 43.601 19.8 44.101 13.1 A 56.81 56.81 0 0 0 32.707 15.022 Q 22.767 17.838 16.401 24.4 A 16.209 16.209 0 0 0 14.091 27.537 A 11.319 11.319 0 0 0 12.601 33.1 A 10.585 10.585 0 0 0 16.941 41.907 Q 18.586 43.175 20.854 44.138 A 23.389 23.389 0 0 0 21.001 44.2 Q 22.083 44.79 24.906 45.38 A 47.368 47.368 0 0 0 25.001 45.4 A 1.891 1.891 0 0 1 25.213 45.447 Q 25.423 45.508 25.52 45.606 A 0.269 0.269 0 0 1 25.601 45.8 Q 25.601 46.3 24.901 46.3 Z M 148.101 54.3 L 146.201 54.5 Q 145.757 54.5 145.642 54.39 A 0.121 0.121 0 0 1 145.601 54.3 A 1.122 1.122 0 0 1 146.217 53.298 Q 146.754 52.978 147.758 52.861 A 10.206 10.206 0 0 1 148.601 52.8 Q 150.201 49 152.001 44.55 Q 153.801 40.1 155.901 35.2 A 45.744 45.744 0 0 1 154.013 36.174 Q 151.098 37.587 149.543 37.692 A 3.583 3.583 0 0 1 149.301 37.7 Q 148.92 37.7 148.902 37.427 A 0.421 0.421 0 0 1 148.901 37.4 A 1.359 1.359 0 0 1 149.332 36.414 Q 149.678 36.067 150.301 35.8 Q 150.493 35.609 150.912 35.463 A 3.451 3.451 0 0 1 150.951 35.45 Q 151.401 35.3 152.001 35 A 34.743 34.743 0 0 0 155.392 33.133 A 29.104 29.104 0 0 0 157.201 31.9 Q 158.437 29.145 160.304 24.99 A 15759.652 15759.652 0 0 1 160.501 24.55 A 18701.845 18701.845 0 0 1 162.1 20.995 Q 163.514 17.85 165.201 14.1 A 179.82 179.82 0 0 0 165.68 13.055 Q 166.101 12.125 166.601 11 A 941.776 941.776 0 0 0 167.244 9.552 Q 167.529 8.907 167.843 8.194 A 1781.369 1781.369 0 0 0 168.501 6.7 A 3.725 3.725 0 0 1 170.77 4.751 Q 171.475 4.51 172.36 4.434 A 9.921 9.921 0 0 1 173.201 4.4 A 4.905 4.905 0 0 1 173.847 4.439 Q 174.549 4.533 174.858 4.854 A 0.894 0.894 0 0 1 175.101 5.5 Q 175.101 5.842 174.445 7.57 A 69.02 69.02 0 0 1 174.201 8.2 A 64.043 64.043 0 0 1 172.68 11.938 Q 171.822 13.879 170.759 15.993 A 108.289 108.289 0 0 1 170.451 16.6 Q 168.101 21.2 164.801 26.5 A 156.905 156.905 0 0 1 164.533 26.875 Q 164.101 27.475 163.501 28.3 Q 162.814 29.246 162.053 30.486 A 48.59 48.59 0 0 0 161.801 30.9 A 19.611 19.611 0 0 0 161.351 31.696 Q 161.141 32.086 160.917 32.537 A 44.318 44.318 0 0 0 160.451 33.5 A 50.993 50.993 0 0 1 159.728 34.977 Q 159.22 35.975 158.601 37.1 A 162.942 162.942 0 0 0 157.214 39.894 Q 154.926 44.6 151.401 52.4 Q 153.373 50.527 153.984 50.501 A 0.399 0.399 0 0 1 154.001 50.5 A 1.194 1.194 0 0 1 154.757 50.78 Q 154.949 50.932 155.127 51.168 A 3.542 3.542 0 0 1 155.401 51.6 Q 155.6 51.501 156.341 51.254 A 36.695 36.695 0 0 1 156.351 51.25 A 17.51 17.51 0 0 0 156.864 51.07 Q 157.436 50.859 158.193 50.545 A 57.153 57.153 0 0 0 158.301 50.5 Q 158.697 49.71 159.336 48.577 A 77.034 77.034 0 0 1 159.351 48.55 A 1138.339 1138.339 0 0 0 159.874 47.624 Q 160.339 46.8 160.901 45.8 Q 162.101 43.7 163.551 41.7 Q 165.001 39.7 166.701 37.8 Q 171.346 32.563 174.33 32.501 A 3.431 3.431 0 0 1 174.401 32.5 Q 177.14 32.5 177.535 37.407 A 22.438 22.438 0 0 1 177.601 39.2 A 7.899 7.899 0 0 1 174.824 45.059 Q 170.492 49.141 159.401 51.7 A 12.777 12.777 0 0 1 158.993 52.446 Q 158.38 53.491 157.301 55 Q 160.401 60.5 164.801 65.1 Q 170.601 71.2 175.201 71.2 A 4.624 4.624 0 0 0 178.558 69.844 A 5.506 5.506 0 0 0 178.601 69.8 A 113.825 113.825 0 0 1 178.978 69.472 Q 180.112 68.488 180.279 68.407 A 0.059 0.059 0 0 1 180.301 68.4 A 0.576 0.576 0 0 1 180.46 68.42 Q 180.637 68.471 180.684 68.652 A 0.589 0.589 0 0 1 180.701 68.8 A 0.728 0.728 0 0 1 180.692 68.907 Q 180.658 69.131 180.501 69.6 A 9.878 9.878 0 0 1 178.855 71.657 A 6.59 6.59 0 0 1 174.201 73.5 A 10.291 10.291 0 0 1 170.63 72.803 Q 167.726 71.727 164.361 68.992 A 40.664 40.664 0 0 1 163.301 68.1 Q 158.601 64 154.901 58.7 A 205.976 205.976 0 0 0 153.458 61.044 A 183.7 183.7 0 0 0 153.001 61.8 A 194.615 194.615 0 0 1 151.595 64.106 A 217.814 217.814 0 0 1 151.101 64.9 A 37.067 37.067 0 0 1 149.621 67.08 Q 148.83 68.154 148.062 69 A 14.749 14.749 0 0 1 146.501 70.5 Q 145.701 72.8 143.401 72.8 A 2.228 2.228 0 0 1 143.007 72.768 Q 142.301 72.641 142.301 72 Q 142.301 69.608 146.534 58.388 A 416.36 416.36 0 0 1 148.101 54.3 Z M 253.701 62 A 18.89 18.89 0 0 0 253.859 64.543 Q 254.658 70.4 259.501 70.4 Q 266.201 70.4 273.901 55.5 L 274.101 54.9 A 0.442 0.442 0 0 0 274.089 54.789 Q 274.053 54.653 273.92 54.615 A 0.432 0.432 0 0 0 273.801 54.6 Q 273.639 54.6 273.278 54.996 A 6.209 6.209 0 0 0 273.101 55.2 A 324.917 324.917 0 0 1 271.724 57.386 Q 269.616 60.7 268.438 62.332 A 19.722 19.722 0 0 1 267.701 63.3 Q 263.501 68.7 260.401 68.7 Q 257.801 68.7 257.801 63.8 Q 257.801 61.174 258.417 57.849 A 58.012 58.012 0 0 1 259.301 53.9 Q 260.133 50.397 261.14 47.599 A 35.33 35.33 0 0 1 262.601 44.1 A 4.403 4.403 0 0 0 262.699 44.025 Q 263.462 43.419 264.401 42.15 Q 265.026 41.306 265.769 40.209 A 93.231 93.231 0 0 0 266.701 38.8 Q 269.101 34.7 269.101 32.9 A 3.637 3.637 0 0 0 269.101 32.825 Q 269.082 31.904 268.591 31.454 A 1.559 1.559 0 0 0 267.901 31.1 Q 270.201 26.4 272.701 21.35 Q 275.201 16.3 278.001 11.1 A 313.414 313.414 0 0 1 279.03 9.121 Q 279.527 8.172 279.99 7.307 A 180.281 180.281 0 0 1 281.051 5.35 A 206.572 206.572 0 0 0 281.33 4.843 Q 282.486 2.731 283.201 1.3 L 283.401 0.9 Q 283.401 0.329 282.468 0.224 A 4.204 4.204 0 0 0 282.001 0.2 Q 278.301 0.2 276.601 2.5 Q 275.301 5.2 274.251 7.4 Q 273.661 8.638 273.149 9.717 A 640.438 640.438 0 0 0 272.401 11.3 Q 270.501 15.6 268.401 20.4 A 522.829 522.829 0 0 0 267.345 22.831 A 600.014 600.014 0 0 0 264.101 30.5 A 22.999 22.999 0 0 0 256.799 32.661 Q 250.629 35.597 244.301 42.3 Q 238.462 48.486 235.999 54.271 A 20.927 20.927 0 0 0 234.201 62.5 Q 234.201 67.065 236.75 68.269 A 4.993 4.993 0 0 0 238.901 68.7 A 6.402 6.402 0 0 0 241.391 68.163 Q 244.856 66.707 248.801 61.3 A 33.577 33.577 0 0 0 249.06 60.928 Q 250.181 59.294 251.701 56.7 A 125.051 125.051 0 0 0 252.803 54.78 Q 254.058 52.55 255.501 49.8 A 129.274 129.274 0 0 0 254.784 53.237 Q 254.094 56.796 253.844 59.378 A 27.501 27.501 0 0 0 253.701 62 Z M 205.301 69.5 L 205.301 69.3 A 37.817 37.817 0 0 0 205.607 68.158 Q 205.738 67.638 205.874 67.048 A 80.658 80.658 0 0 0 206.151 65.8 L 207.201 60.9 Q 207.772 58.24 208.613 54.27 A 5277.888 5277.888 0 0 0 208.701 53.85 A 414.529 414.529 0 0 1 209.566 49.873 Q 210.019 47.831 210.544 45.549 A 743.639 743.639 0 0 1 210.901 44 Q 210.802 43.802 210.555 43.061 A 36.695 36.695 0 0 1 210.551 43.05 A 17.51 17.51 0 0 0 210.371 42.538 Q 210.16 41.966 209.847 41.209 A 57.153 57.153 0 0 0 209.801 41.1 Q 209.301 39.8 209.001 39.2 L 208.701 38.6 A 0.696 0.696 0 0 1 208.885 38.152 Q 209.259 37.703 210.401 37.3 A 92.188 92.188 0 0 1 212.15 36.655 Q 215.664 35.4 216.801 35.4 Q 217.78 35.4 218.12 35.783 A 0.75 0.75 0 0 1 218.301 36.3 A 0.008 0.008 0 0 0 218.295 36.293 Q 218.1 36.293 213.671 47.871 A 1820.46 1820.46 0 0 0 213.201 49.1 L 213.201 50 A 13.299 13.299 0 0 1 213.175 50.88 Q 213.047 52.8 212.301 52.8 A 0.111 0.111 0 0 1 212.246 52.782 Q 212.152 52.726 212.001 52.5 Q 211.201 55 210.451 57.25 Q 209.701 59.5 209.101 61.7 Q 211.301 58.1 213.651 54.8 A 85.226 85.226 0 0 1 218.345 48.782 A 78.417 78.417 0 0 1 218.501 48.6 Q 226.001 39.9 230.901 39.9 A 4.311 4.311 0 0 1 231.741 39.974 Q 233.058 40.237 233.187 41.43 A 2.511 2.511 0 0 1 233.201 41.7 A 3.101 3.101 0 0 1 233.166 42.148 Q 233.098 42.61 232.901 43.2 Q 232.046 46.431 230.785 51.242 A 6446.922 6446.922 0 0 0 230.651 51.75 A 595.579 595.579 0 0 1 229.562 55.845 Q 228.589 59.45 227.401 63.7 A 43.57 43.57 0 0 0 232.232 59.573 A 31.568 31.568 0 0 0 236.401 54.5 A 6.209 6.209 0 0 1 236.578 54.296 Q 236.939 53.9 237.101 53.9 A 0.315 0.315 0 0 1 237.24 53.928 Q 237.373 53.993 237.396 54.203 A 0.875 0.875 0 0 1 237.401 54.3 A 0.454 0.454 0 0 1 237.384 54.415 Q 237.334 54.601 237.146 54.926 A 6.085 6.085 0 0 1 237.101 55 A 42.692 42.692 0 0 1 231.89 62.385 A 34.619 34.619 0 0 1 226.401 67.4 Q 226.001 68 225.101 68 Q 224.401 68 224.401 67.2 A 1.429 1.429 0 0 1 224.41 67.078 Q 224.441 66.767 224.582 65.811 A 151.316 151.316 0 0 1 224.651 65.35 Q 224.843 64.087 225.239 62.032 A 202.296 202.296 0 0 1 225.501 60.7 A 124.755 124.755 0 0 0 226.395 56.433 A 116.994 116.994 0 0 0 226.401 56.4 Q 226.801 54.3 227.201 52.1 Q 227.701 49.6 227.851 47.45 Q 228.001 45.3 228.101 43.5 A 14.55 14.55 0 0 0 226.256 44.519 Q 224.866 45.414 223.351 46.75 A 56.019 56.019 0 0 0 221.362 48.599 Q 219.639 50.275 217.701 52.4 A 91.898 91.898 0 0 0 214.451 56.181 Q 211.233 60.153 209.515 63.375 A 27.803 27.803 0 0 0 209.501 63.4 Q 208.101 66.1 207.401 69.2 Q 207.141 70.242 206.711 70.606 A 0.771 0.771 0 0 1 206.201 70.8 A 0.864 0.864 0 0 1 205.756 70.692 Q 205.407 70.487 205.326 69.894 A 2.914 2.914 0 0 1 205.301 69.5 Z M 179.701 61.4 A 20.015 20.015 0 0 0 179.796 63.399 Q 180.52 70.6 186.801 70.6 A 13.69 13.69 0 0 0 190.015 70.204 Q 193.911 69.266 198.201 66.1 A 39.693 39.693 0 0 0 202.41 62.568 A 29.975 29.975 0 0 0 206.901 57.1 A 20.775 20.775 0 0 0 207.175 56.607 Q 207.561 55.887 207.664 55.521 A 0.849 0.849 0 0 0 207.701 55.3 A 0.673 0.673 0 0 0 207.7 55.258 Q 207.69 55.1 207.601 55.1 A 0.587 0.587 0 0 0 207.44 55.124 Q 206.884 55.283 206.101 56.5 Q 203.301 61.2 199.101 64.5 Q 194.101 68.5 189.501 68.5 A 8.417 8.417 0 0 1 189.261 68.497 Q 184.673 68.366 183.74 63.178 A 16.911 16.911 0 0 1 183.501 60.2 Q 183.501 58 184.301 55.6 A 18.25 18.25 0 0 0 186.238 55.327 Q 188.931 54.8 191.708 53.452 A 32.491 32.491 0 0 0 196.301 50.7 A 26.338 26.338 0 0 0 199.417 48.086 Q 203.201 44.325 203.201 40.4 A 6.05 6.05 0 0 0 203.17 39.773 A 4.238 4.238 0 0 0 201.601 36.8 A 4.433 4.433 0 0 0 201.336 36.572 Q 199.981 35.5 197.801 35.5 A 5.742 5.742 0 0 0 197.245 35.529 Q 196.173 35.633 194.686 36.12 A 26.439 26.439 0 0 0 193.101 36.7 Q 189.601 38.1 189.601 39.3 A 0.076 0.076 0 0 0 189.635 39.365 Q 189.668 39.389 189.735 39.397 A 0.601 0.601 0 0 0 189.801 39.4 Q 190.101 39.4 192.601 37.8 A 15.294 15.294 0 0 1 194.158 37.009 Q 195.795 36.3 197.101 36.3 A 3.439 3.439 0 0 1 197.425 36.315 Q 197.985 36.368 198.419 36.61 A 2.338 2.338 0 0 1 199.301 37.5 A 6.075 6.075 0 0 1 199.511 37.868 A 4.972 4.972 0 0 1 200.101 40.2 A 9.27 9.27 0 0 1 199.401 43.696 Q 198.745 45.322 197.473 46.924 A 21.21 21.21 0 0 1 194.901 49.6 Q 192.129 52.053 189.47 53.198 A 11.497 11.497 0 0 1 184.901 54.2 L 184.801 54.1 L 184.701 54 A 25.203 25.203 0 0 1 186.754 49.669 A 33.793 33.793 0 0 1 189.601 45.6 A 31.809 31.809 0 0 1 189.796 45.348 Q 191.209 43.531 192.718 42.14 A 18.757 18.757 0 0 1 196.501 39.4 Q 197.901 38.6 197.901 38.4 Q 197.901 38.152 197.147 38.109 A 6.154 6.154 0 0 0 196.801 38.1 A 8.196 8.196 0 0 0 196.74 38.1 Q 193.371 38.126 189.695 40.92 A 26.896 26.896 0 0 0 186.801 43.5 Q 184.27 46.032 182.753 48.59 A 16.293 16.293 0 0 0 180.801 53.4 Q 180.364 53.275 180.024 53.131 A 3.957 3.957 0 0 1 179.651 52.95 Q 179.201 52.7 178.801 52.6 Q 179.026 53.05 179.251 53.421 A 7.618 7.618 0 0 0 179.601 53.95 Q 179.828 54.262 180.055 54.493 A 3.051 3.051 0 0 0 180.401 54.8 A 35.283 35.283 0 0 0 180.099 56.415 A 27.818 27.818 0 0 0 179.851 58.35 A 38.972 38.972 0 0 0 179.749 59.746 A 30.297 30.297 0 0 0 179.701 61.4 Z M 58.401 40.8 L 60.301 40.8 Q 61.201 40.8 62.051 40.65 Q 62.901 40.5 63.601 40.4 A 25.178 25.178 0 0 0 68.289 39.096 A 18.782 18.782 0 0 0 72.801 36.6 A 12.959 12.959 0 0 0 75.38 33.841 A 9.832 9.832 0 0 0 77.101 28.2 A 10.992 10.992 0 0 0 74.218 20.759 A 14.867 14.867 0 0 0 73.401 19.9 Q 71.801 18.3 69.801 17.15 Q 67.801 16 65.401 15.2 Q 62.995 17.349 60.589 20.605 A 52.549 52.549 0 0 0 59.801 21.7 Q 57.001 25.7 54.401 31.1 Q 52.201 35.9 50.001 40.75 Q 47.801 45.6 45.601 50.5 Q 40.622 61.398 35.908 67.001 A 31.611 31.611 0 0 1 35.301 67.7 Q 38.901 69 42.451 70.35 Q 46.001 71.7 49.701 72.9 A 64.154 64.154 0 0 0 54.69 74.271 A 53.394 53.394 0 0 0 57.551 74.85 A 44.313 44.313 0 0 0 62.433 75.43 A 37.461 37.461 0 0 0 64.701 75.5 A 27.87 27.87 0 0 0 69.213 75.168 Q 77.171 73.855 77.488 67.349 A 11.278 11.278 0 0 0 77.501 66.8 A 16.991 16.991 0 0 0 72.502 54.854 Q 70.102 52.306 66.551 50.064 A 48.334 48.334 0 0 0 61.701 47.4 A 22.426 22.426 0 0 0 60.895 47.018 Q 60.446 46.816 59.936 46.605 A 41.352 41.352 0 0 0 59.301 46.35 A 39.186 39.186 0 0 1 58.181 45.888 Q 57.685 45.676 57.14 45.429 A 75.324 75.324 0 0 1 56.001 44.9 A 0.2 0.2 0 0 1 55.829 44.792 Q 55.722 44.621 55.705 44.179 A 4.593 4.593 0 0 1 55.701 44 A 4.279 4.279 0 0 1 55.865 42.767 Q 56.366 41.102 58.401 40.8 Z M 103.143 68.425 A 4.283 4.283 0 0 0 106.601 70.1 A 4.881 4.881 0 0 0 108.542 69.647 Q 113.156 67.637 120.501 56.7 A 2.544 2.544 0 0 0 120.544 56.646 Q 120.686 56.458 120.771 56.271 A 1.364 1.364 0 0 0 120.901 55.7 A 0.875 0.875 0 0 0 120.896 55.603 Q 120.873 55.393 120.74 55.328 A 0.315 0.315 0 0 0 120.601 55.3 Q 120.301 55.3 119.701 56.1 A 166.691 166.691 0 0 1 119.242 56.762 Q 110.914 68.7 107.701 68.7 A 1.88 1.88 0 0 1 106.01 67.64 Q 105.201 66.242 105.201 63 Q 105.201 55.4 108.101 48.2 Q 111.339 45.772 112.705 43.344 A 7.173 7.173 0 0 0 113.701 39.8 Q 113.701 36.4 109.801 36.4 A 15.861 15.861 0 0 0 103.247 37.878 Q 98.292 40.108 93.301 45.7 A 45.632 45.632 0 0 0 90.36 49.302 Q 88.179 52.284 86.903 55.2 A 20.099 20.099 0 0 0 85.101 63.3 A 11.523 11.523 0 0 0 85.155 64.441 Q 85.569 68.6 89.201 68.6 A 6.407 6.407 0 0 0 89.423 68.596 Q 96.005 68.369 102.201 54.6 Q 101.701 56.8 101.451 58.65 A 34.566 34.566 0 0 0 101.444 58.708 Q 101.324 59.603 101.264 60.416 A 21.37 21.37 0 0 0 101.201 62 Q 101.201 65 102.401 67.3 A 6.963 6.963 0 0 0 103.143 68.425 Z M 123.046 71.072 A 8.72 8.72 0 0 0 125.901 71.5 A 15.692 15.692 0 0 0 129.974 70.933 Q 134.008 69.85 138.601 66.7 A 42.739 42.739 0 0 0 140.707 65.158 A 35.367 35.367 0 0 0 144.201 62.05 A 37.31 37.31 0 0 0 145.358 60.816 A 31.999 31.999 0 0 0 148.301 57 A 31.668 31.668 0 0 0 148.404 56.84 Q 149.031 55.851 149.165 55.465 A 0.542 0.542 0 0 0 149.201 55.3 L 149.001 55.1 A 0.474 0.474 0 0 0 148.785 55.16 Q 148.43 55.344 147.925 56.09 A 11.108 11.108 0 0 0 147.601 56.6 A 34.147 34.147 0 0 1 147.232 57.188 Q 146.637 58.111 146.101 58.8 Q 145.664 59.363 145.305 59.808 A 40.63 40.63 0 0 1 144.901 60.3 Q 143.501 62 141.751 63.45 Q 140.001 64.9 138.001 66.2 A 25.404 25.404 0 0 1 136.083 67.339 Q 132.594 69.2 129.601 69.2 A 8.495 8.495 0 0 1 128.973 69.178 Q 124.664 68.858 123.748 64.031 A 15.81 15.81 0 0 1 123.501 61.1 Q 123.501 55.9 127.601 49.4 Q 129.383 46.541 131.406 44.363 A 23.313 23.313 0 0 1 136.301 40.3 Q 137.911 39.335 138.225 38.952 A 0.27 0.27 0 0 0 138.301 38.8 A 0.25 0.25 0 0 0 138.239 38.632 Q 138.084 38.453 137.547 38.412 A 4.62 4.62 0 0 0 137.201 38.4 Q 130.001 38.4 124.101 47.7 A 45.163 45.163 0 0 0 124.034 47.808 Q 121.93 51.213 120.706 54.548 A 26.436 26.436 0 0 0 119.001 63.7 A 16.841 16.841 0 0 0 119.008 64.171 Q 119.163 69.728 123.046 71.072 Z M 27.501 65.2 L 31.301 66.5 A 27.124 27.124 0 0 0 33.582 63.631 Q 36.608 59.319 40.201 51.7 Q 42.501 46.7 44.801 41.8 L 49.401 32 Q 52.401 25.9 55.301 21.45 Q 57.788 17.635 60.201 14.959 A 34.439 34.439 0 0 1 61.001 14.1 Q 55.001 12.9 48.801 12.9 L 47.101 12.9 A 14.449 14.449 0 0 0 45.911 12.947 A 12.252 12.252 0 0 0 45.401 13 Q 45.001 19.7 43.801 26.55 A 101.523 101.523 0 0 1 40.859 38.729 A 113.268 113.268 0 0 1 40.301 40.5 A 95.82 95.82 0 0 1 35.968 51.648 Q 33.415 57.111 30.371 61.468 A 50.449 50.449 0 0 1 27.501 65.2 Z M 11.601 77.6 A 19.503 19.503 0 0 0 17.302 76.708 Q 19.652 75.992 22.101 74.7 A 30.456 30.456 0 0 0 25.756 72.531 Q 27.551 71.276 28.857 69.891 A 14.322 14.322 0 0 0 30.501 67.8 Q 29.701 67.4 28.751 66.95 A 22.588 22.588 0 0 0 27.374 66.355 A 26.533 26.533 0 0 0 26.701 66.1 A 29.462 29.462 0 0 1 22.301 70.213 Q 19.375 72.399 16.298 73.289 A 15.386 15.386 0 0 1 12.001 73.9 A 7.877 7.877 0 0 1 11.404 73.88 Q 10.467 73.808 10.204 73.488 A 0.44 0.44 0 0 1 10.101 73.2 Q 10.101 72.779 11.308 72.713 A 9.031 9.031 0 0 1 11.801 72.7 A 13.706 13.706 0 0 0 18.144 71.061 Q 20.233 69.981 22.323 68.19 A 33.012 33.012 0 0 0 25.001 65.6 A 39.467 39.467 0 0 0 17.053 63.684 A 33.866 33.866 0 0 0 12.701 63.4 A 20.279 20.279 0 0 0 10.184 63.551 A 17.122 17.122 0 0 0 8.951 63.75 A 19.404 19.404 0 0 0 6.663 64.35 A 16.748 16.748 0 0 0 5.701 64.7 Q 1.747 66.282 1.702 69.916 A 6.778 6.778 0 0 0 1.701 70 A 6.102 6.102 0 0 0 3.922 74.8 A 9.055 9.055 0 0 0 5.001 75.6 Q 7.901 77.6 11.601 77.6 Z M 239.401 65 Q 246.701 65 253.701 48.7 A 17.881 17.881 0 0 1 252.582 49.017 Q 251.484 49.286 250.684 49.3 A 4.945 4.945 0 0 1 250.601 49.3 A 0.576 0.576 0 0 1 250.443 49.28 Q 250.266 49.23 250.219 49.048 A 0.589 0.589 0 0 1 250.201 48.9 A 0.466 0.466 0 0 1 250.325 48.603 Q 250.569 48.31 251.296 48.016 A 8.013 8.013 0 0 1 251.601 47.9 A 9.818 9.818 0 0 0 252.672 47.438 Q 253.178 47.185 253.736 46.851 A 23.297 23.297 0 0 0 254.901 46.1 Q 255.301 45.1 255.751 43.85 A 30.71 30.71 0 0 0 256.242 42.365 A 38.764 38.764 0 0 0 256.601 41.1 Q 256.901 40.3 257.301 40.3 Q 258.001 40.3 258.001 41.2 A 3.101 3.101 0 0 1 257.952 41.704 Q 257.812 42.533 257.279 44.017 A 37.369 37.369 0 0 1 257.101 44.5 Q 257.601 44.1 258.051 43.75 Q 258.501 43.4 258.901 43.2 Q 259.901 40.7 260.951 38.1 Q 262.001 35.5 263.101 32.8 Q 255.501 34.5 246.301 43.7 Q 236.701 53.3 236.701 60.6 Q 236.701 65 239.401 65 Z M 101.47 52.276 A 76.737 76.737 0 0 0 101.801 51.5 Q 101.001 51.7 100.351 51.85 Q 99.701 52 99.201 52 Q 98.82 52 98.802 51.727 A 0.421 0.421 0 0 1 98.801 51.7 A 0.466 0.466 0 0 1 98.925 51.403 Q 99.169 51.11 99.896 50.816 A 8.013 8.013 0 0 1 100.201 50.7 Q 100.701 50.4 101.501 49.95 Q 102.301 49.5 103.301 48.9 Q 103.501 47.2 105.401 44.5 A 12.602 12.602 0 0 1 106.267 43.358 Q 107.226 42.243 108.132 41.878 A 2.314 2.314 0 0 1 109.001 41.7 Q 109.499 41.7 109.584 42.32 A 2.078 2.078 0 0 1 109.601 42.6 A 3.015 3.015 0 0 1 109.566 43.029 Q 109.501 43.479 109.313 44.124 A 18.161 18.161 0 0 1 109.101 44.8 Q 110.448 42.948 110.661 41.167 A 5.61 5.61 0 0 0 110.701 40.5 A 3.651 3.651 0 0 0 110.605 39.618 Q 110.25 38.2 108.601 38.2 A 7.294 7.294 0 0 0 105.498 38.997 Q 101.689 40.806 96.582 46.721 A 77.68 77.68 0 0 0 95.501 48 A 77.357 77.357 0 0 0 92.345 52.111 Q 87.646 58.716 87.414 62.784 A 7.301 7.301 0 0 0 87.401 63.2 Q 87.401 65.5 89.601 65.5 Q 95.725 65.5 101.47 52.276 Z M 140.752 48.414 A 1.6 1.6 0 0 0 141.301 48.5 Q 142.601 48.5 143.501 45.7 Q 144.201 43.6 144.201 41.8 A 14.03 14.03 0 0 0 144.173 40.894 Q 143.907 36.784 141.132 35.694 A 6.349 6.349 0 0 0 138.801 35.3 A 10.686 10.686 0 0 0 137.473 35.389 Q 136.623 35.495 135.658 35.731 A 24.767 24.767 0 0 0 133.701 36.3 Q 130.99 37.135 130.164 38.066 A 1.256 1.256 0 0 0 129.801 38.9 A 0.421 0.421 0 0 0 129.802 38.927 Q 129.82 39.2 130.201 39.2 Q 130.376 39.2 132.466 38.052 A 163.527 163.527 0 0 0 133.101 37.7 A 22.714 22.714 0 0 1 133.622 37.448 Q 135.184 36.716 136.413 36.451 A 6.14 6.14 0 0 1 137.701 36.3 A 5.043 5.043 0 0 1 138.323 36.337 Q 141.301 36.707 141.301 40.8 A 7.264 7.264 0 0 1 141.216 41.863 Q 141.133 42.419 140.971 43.056 A 18.256 18.256 0 0 1 140.601 44.3 Q 140.133 45.941 140.03 46.666 A 2.477 2.477 0 0 0 140.001 47 Q 140.001 48.14 140.752 48.414 Z M 171.576 42.54 A 7.492 7.492 0 0 0 172.701 38.6 A 9.107 9.107 0 0 0 172.66 37.684 Q 172.567 36.774 172.27 36.304 A 0.981 0.981 0 0 0 171.401 35.8 Q 169.201 35.8 162.801 45.5 Q 162.401 46.2 161.751 47.35 Q 161.101 48.5 160.301 50 Q 168.965 46.856 171.576 42.54 Z M 152.101 53.5 L 151.001 53.6 Q 150.314 55.319 149.626 57.605 A 81.138 81.138 0 0 0 149.001 59.8 A 145.207 145.207 0 0 0 148.237 62.758 Q 147.589 65.375 146.901 68.5 A 48.797 48.797 0 0 0 149.843 64.675 Q 151.194 62.74 152.559 60.46 A 94.66 94.66 0 0 0 154.201 57.6 Q 153.801 56.9 153.301 55.9 L 152.101 53.5 Z M 211.501 41.3 L 212.401 38 A 3.174 3.174 0 0 1 212.095 38.213 Q 211.564 38.543 210.548 38.98 A 26.793 26.793 0 0 1 210.501 39 Q 210.801 39.6 211.051 40.2 Q 211.301 40.8 211.501 41.3 Z" vector-effect="non-scaling-stroke"/></g></svg>