<svg width="236.301" height="77.6" viewBox="0 0 236.301 77.6" xmlns="http://www.w3.org/2000/svg"><g id="svgGroup" stroke-linecap="round" fill-rule="evenodd" font-size="9pt" stroke="#000" stroke-width="0.25mm" fill="#000" style="stroke:#000;stroke-width:0.25mm;fill:#000"><path d="M 24.001 46.3 L 23.801 46.2 A 18.093 18.093 0 0 1 13.348 41.727 A 22.102 22.102 0 0 1 13.201 41.6 A 17.562 17.562 0 0 1 10.241 38.365 A 11.969 11.969 0 0 1 8.001 31.4 Q 8.001 27 11.501 23.4 A 34.291 34.291 0 0 1 24.697 14.919 Q 30.035 12.933 36.609 12.085 A 78.023 78.023 0 0 1 44.101 11.5 Q 44.201 10.1 44.251 8.8 Q 44.301 7.5 44.301 6.2 L 44.301 5.05 A 11.011 11.011 0 0 0 44.289 4.562 Q 44.267 4.056 44.201 3.4 Q 44.112 2.595 44.102 1.95 A 10.25 10.25 0 0 1 44.101 1.8 L 44.101 0.7 A 1.83 1.83 0 0 1 44.115 0.462 Q 44.149 0.207 44.263 0.093 A 0.322 0.322 0 0 1 44.501 0 A 0.078 0.078 0 0 1 44.551 0.025 Q 44.639 0.106 44.779 0.445 A 5.758 5.758 0 0 1 44.801 0.5 A 41.237 41.237 0 0 1 45.174 3.58 Q 45.467 6.989 45.402 11.474 A 111.746 111.746 0 0 1 45.401 11.5 A 72.053 72.053 0 0 1 46.349 11.494 A 66.357 66.357 0 0 1 60.101 12.9 A 36.048 36.048 0 0 1 63.894 8.662 Q 66.036 6.646 68.205 5.449 A 13.117 13.117 0 0 1 74.601 3.7 A 11.53 11.53 0 0 1 77.332 4.018 A 10.684 10.684 0 0 1 77.651 4.1 Q 79.101 4.5 80.401 5.3 Q 83.001 6.9 84.101 9.8 A 7.558 7.558 0 0 1 84.501 12.163 A 7.204 7.204 0 0 1 84.501 12.2 A 1.201 1.201 0 0 1 84.494 12.334 Q 84.464 12.6 84.301 12.6 A 0.437 0.437 0 0 1 83.988 12.454 Q 83.7 12.163 83.501 11.3 Q 82.901 9.2 80.201 7.7 A 13.716 13.716 0 0 0 78.061 6.835 Q 76.631 6.4 75.301 6.4 A 11.49 11.49 0 0 0 68.878 8.434 Q 67.15 9.576 65.503 11.358 A 27.22 27.22 0 0 0 63.801 13.4 A 40.618 40.618 0 0 1 72.189 15.63 A 36.648 36.648 0 0 1 74.351 16.55 Q 79.201 18.8 83.101 22.3 A 28.834 28.834 0 0 1 88.822 29.191 A 23.233 23.233 0 0 1 92.001 41.1 A 32.256 32.256 0 0 1 88.997 54.591 A 36.964 36.964 0 0 1 88.901 54.8 A 33.05 33.05 0 0 1 80.849 65.654 A 31.861 31.861 0 0 1 76.101 69.1 A 37.238 37.238 0 0 1 57.329 74.099 A 43.911 43.911 0 0 1 57.001 74.1 A 52.045 52.045 0 0 1 45.438 72.73 Q 39.963 71.483 34.101 69.1 A 21.766 21.766 0 0 1 19.451 77.301 A 31.941 31.941 0 0 1 15.001 77.6 Q 14.001 77.6 13.051 77.55 A 27.397 27.397 0 0 1 12.03 77.478 A 21.36 21.36 0 0 1 11.301 77.4 A 11.846 11.846 0 0 1 7.812 76.467 A 13.401 13.401 0 0 1 7.551 76.35 A 17.669 17.669 0 0 1 5.031 74.922 A 21.067 21.067 0 0 1 3.901 74.1 A 14.072 14.072 0 0 1 1.929 72.156 Q 0.905 70.905 0.425 69.585 A 6.928 6.928 0 0 1 0.001 67.2 Q 0.001 63.99 2.711 62.135 A 9.059 9.059 0 0 1 3.601 61.6 A 11.602 11.602 0 0 1 6.943 60.352 Q 8.375 60.044 10.025 60.006 A 20.437 20.437 0 0 1 10.501 60 Q 16.101 60 26.101 64.1 A 46.8 46.8 0 0 0 30.155 58.612 A 59.941 59.941 0 0 0 33.001 53.6 A 87.988 87.988 0 0 0 36.299 46.263 A 111.3 111.3 0 0 0 38.601 39.9 Q 43.001 26.4 44.001 13.1 A 62.788 62.788 0 0 0 32.833 14.676 Q 26.603 16.18 21.798 19.008 A 30.526 30.526 0 0 0 15.001 24.4 A 15.357 15.357 0 0 0 12.807 27.396 A 10.858 10.858 0 0 0 11.401 32.7 A 11.077 11.077 0 0 0 15.863 41.795 A 18.525 18.525 0 0 0 19.501 44 Q 20.189 44.344 21.135 44.614 A 14.43 14.43 0 0 0 21.451 44.7 A 206.957 206.957 0 0 0 22.377 44.939 Q 22.789 45.045 23.245 45.16 A 392.164 392.164 0 0 0 24.201 45.4 Q 24.626 45.57 24.69 45.74 A 0.17 0.17 0 0 1 24.701 45.8 Q 24.701 46.3 24.001 46.3 Z M 149.801 54.3 L 147.901 54.5 Q 147.457 54.5 147.341 54.39 A 0.121 0.121 0 0 1 147.301 54.3 A 1.122 1.122 0 0 1 147.917 53.298 Q 148.454 52.978 149.457 52.861 A 10.206 10.206 0 0 1 150.301 52.8 Q 151.901 49 153.701 44.55 Q 155.501 40.1 157.601 35.2 A 45.744 45.744 0 0 1 155.713 36.174 Q 152.798 37.587 151.242 37.692 A 3.583 3.583 0 0 1 151.001 37.7 Q 150.619 37.7 150.602 37.427 A 0.421 0.421 0 0 1 150.601 37.4 A 1.359 1.359 0 0 1 151.032 36.414 Q 151.378 36.067 152.001 35.8 Q 152.192 35.609 152.612 35.463 A 3.451 3.451 0 0 1 152.651 35.45 Q 153.101 35.3 153.701 35 A 34.743 34.743 0 0 0 157.092 33.133 A 29.104 29.104 0 0 0 158.901 31.9 Q 160.136 29.145 162.004 24.99 A 15759.652 15759.652 0 0 1 162.201 24.55 A 18701.845 18701.845 0 0 1 163.8 20.995 Q 165.214 17.85 166.901 14.1 A 179.82 179.82 0 0 0 167.379 13.055 Q 167.801 12.125 168.301 11 A 941.776 941.776 0 0 0 168.943 9.552 Q 169.228 8.907 169.543 8.194 A 1781.369 1781.369 0 0 0 170.201 6.7 A 3.725 3.725 0 0 1 172.47 4.751 Q 173.175 4.51 174.059 4.434 A 9.921 9.921 0 0 1 174.901 4.4 A 4.905 4.905 0 0 1 175.547 4.439 Q 176.249 4.533 176.558 4.854 A 0.894 0.894 0 0 1 176.801 5.5 Q 176.801 5.842 176.144 7.57 A 69.02 69.02 0 0 1 175.901 8.2 A 64.043 64.043 0 0 1 174.38 11.938 Q 173.522 13.879 172.459 15.993 A 108.289 108.289 0 0 1 172.151 16.6 Q 169.801 21.2 166.501 26.5 A 156.905 156.905 0 0 1 166.232 26.875 Q 165.801 27.475 165.201 28.3 Q 164.514 29.246 163.752 30.486 A 48.59 48.59 0 0 0 163.501 30.9 A 19.611 19.611 0 0 0 163.05 31.696 Q 162.841 32.086 162.616 32.537 A 44.318 44.318 0 0 0 162.151 33.5 A 50.993 50.993 0 0 1 161.428 34.977 Q 160.92 35.975 160.301 37.1 A 162.942 162.942 0 0 0 158.914 39.894 Q 156.626 44.6 153.101 52.4 Q 155.073 50.527 155.684 50.501 A 0.399 0.399 0 0 1 155.701 50.5 A 1.194 1.194 0 0 1 156.457 50.78 Q 156.649 50.932 156.826 51.168 A 3.542 3.542 0 0 1 157.101 51.6 Q 157.3 51.501 158.041 51.254 A 36.695 36.695 0 0 1 158.051 51.25 A 17.51 17.51 0 0 0 158.564 51.07 Q 159.135 50.859 159.892 50.545 A 57.153 57.153 0 0 0 160.001 50.5 Q 160.396 49.71 161.036 48.577 A 77.034 77.034 0 0 1 161.051 48.55 A 1138.339 1138.339 0 0 0 161.574 47.624 Q 162.039 46.8 162.601 45.8 Q 163.801 43.7 165.251 41.7 Q 166.701 39.7 168.401 37.8 Q 173.045 32.563 176.029 32.501 A 3.431 3.431 0 0 1 176.101 32.5 Q 178.84 32.5 179.235 37.407 A 22.438 22.438 0 0 1 179.301 39.2 A 7.899 7.899 0 0 1 176.524 45.059 Q 172.192 49.141 161.101 51.7 A 12.777 12.777 0 0 1 160.692 52.446 Q 160.079 53.491 159.001 55 Q 162.101 60.5 166.501 65.1 Q 172.301 71.2 176.901 71.2 A 4.624 4.624 0 0 0 180.257 69.844 A 5.506 5.506 0 0 0 180.301 69.8 A 113.825 113.825 0 0 1 180.678 69.472 Q 181.812 68.488 181.979 68.407 A 0.059 0.059 0 0 1 182.001 68.4 A 0.576 0.576 0 0 1 182.159 68.42 Q 182.337 68.471 182.384 68.652 A 0.589 0.589 0 0 1 182.401 68.8 A 0.728 0.728 0 0 1 182.392 68.907 Q 182.357 69.131 182.201 69.6 A 9.878 9.878 0 0 1 180.555 71.657 A 6.59 6.59 0 0 1 175.901 73.5 A 10.291 10.291 0 0 1 172.329 72.803 Q 169.425 71.727 166.06 68.992 A 40.664 40.664 0 0 1 165.001 68.1 Q 160.301 64 156.601 58.7 A 205.976 205.976 0 0 0 155.157 61.044 A 183.7 183.7 0 0 0 154.701 61.8 A 194.615 194.615 0 0 1 153.295 64.106 A 217.814 217.814 0 0 1 152.801 64.9 A 37.067 37.067 0 0 1 151.321 67.08 Q 150.53 68.154 149.762 69 A 14.749 14.749 0 0 1 148.201 70.5 Q 147.401 72.8 145.101 72.8 A 2.228 2.228 0 0 1 144.706 72.768 Q 144.001 72.641 144.001 72 Q 144.001 69.608 148.233 58.388 A 416.36 416.36 0 0 1 149.801 54.3 Z M 181.401 61.4 A 20.015 20.015 0 0 0 181.495 63.399 Q 182.219 70.6 188.501 70.6 A 13.69 13.69 0 0 0 191.715 70.204 Q 195.61 69.266 199.901 66.1 A 39.693 39.693 0 0 0 204.11 62.568 A 29.975 29.975 0 0 0 208.601 57.1 A 20.775 20.775 0 0 0 208.875 56.607 Q 209.26 55.887 209.364 55.521 A 0.849 0.849 0 0 0 209.401 55.3 A 0.673 0.673 0 0 0 209.4 55.258 Q 209.39 55.1 209.301 55.1 A 0.587 0.587 0 0 0 209.14 55.124 Q 208.584 55.283 207.801 56.5 Q 205.001 61.2 200.801 64.5 Q 195.801 68.5 191.201 68.5 A 8.417 8.417 0 0 1 190.961 68.497 Q 186.372 68.366 185.439 63.178 A 16.911 16.911 0 0 1 185.201 60.2 Q 185.201 58 186.001 55.6 A 18.25 18.25 0 0 0 187.938 55.327 Q 190.631 54.8 193.407 53.452 A 32.491 32.491 0 0 0 198.001 50.7 A 26.338 26.338 0 0 0 201.117 48.086 Q 204.901 44.325 204.901 40.4 A 6.05 6.05 0 0 0 204.869 39.773 A 4.238 4.238 0 0 0 203.301 36.8 A 4.433 4.433 0 0 0 203.035 36.572 Q 201.681 35.5 199.501 35.5 A 5.742 5.742 0 0 0 198.945 35.529 Q 197.872 35.633 196.386 36.12 A 26.439 26.439 0 0 0 194.801 36.7 Q 191.301 38.1 191.301 39.3 A 0.076 0.076 0 0 0 191.334 39.365 Q 191.367 39.389 191.434 39.397 A 0.601 0.601 0 0 0 191.501 39.4 Q 191.801 39.4 194.301 37.8 A 15.294 15.294 0 0 1 195.858 37.009 Q 197.495 36.3 198.801 36.3 A 3.439 3.439 0 0 1 199.124 36.315 Q 199.684 36.368 200.118 36.61 A 2.338 2.338 0 0 1 201.001 37.5 A 6.075 6.075 0 0 1 201.21 37.868 A 4.972 4.972 0 0 1 201.801 40.2 A 9.27 9.27 0 0 1 201.101 43.696 Q 200.445 45.322 199.173 46.924 A 21.21 21.21 0 0 1 196.601 49.6 Q 193.828 52.053 191.17 53.198 A 11.497 11.497 0 0 1 186.601 54.2 L 186.501 54.1 L 186.401 54 A 25.203 25.203 0 0 1 188.453 49.669 A 33.793 33.793 0 0 1 191.301 45.6 A 31.809 31.809 0 0 1 191.495 45.348 Q 192.908 43.531 194.418 42.14 A 18.757 18.757 0 0 1 198.201 39.4 Q 199.601 38.6 199.601 38.4 Q 199.601 38.152 198.847 38.109 A 6.154 6.154 0 0 0 198.501 38.1 A 8.196 8.196 0 0 0 198.44 38.1 Q 195.071 38.126 191.395 40.92 A 26.896 26.896 0 0 0 188.501 43.5 Q 185.97 46.032 184.453 48.59 A 16.293 16.293 0 0 0 182.501 53.4 Q 182.064 53.275 181.724 53.131 A 3.957 3.957 0 0 1 181.351 52.95 Q 180.901 52.7 180.501 52.6 Q 180.726 53.05 180.951 53.421 A 7.618 7.618 0 0 0 181.301 53.95 Q 181.528 54.262 181.754 54.493 A 3.051 3.051 0 0 0 182.101 54.8 A 35.283 35.283 0 0 0 181.799 56.415 A 27.818 27.818 0 0 0 181.551 58.35 A 38.972 38.972 0 0 0 181.449 59.746 A 30.297 30.297 0 0 0 181.401 61.4 Z M 211.899 69.936 A 2.192 2.192 0 0 0 212.401 70 A 0.886 0.886 0 0 0 212.42 70 A 0.675 0.675 0 0 0 212.901 69.8 A 48.498 48.498 0 0 0 213.048 69.403 A 43.2 43.2 0 0 0 213.451 68.25 L 213.901 66.9 Q 215.501 62.8 216.301 60.7 A 619.324 619.324 0 0 0 216.524 60.115 Q 217.116 58.556 217.201 58.3 A 25.304 25.304 0 0 1 217.389 57.978 Q 218.743 55.687 221.085 52.779 A 89.808 89.808 0 0 1 223.601 49.8 Q 227.791 45.154 230.123 44.047 A 3.062 3.062 0 0 1 231.401 43.7 Q 232.782 43.7 233.041 45.483 A 6.417 6.417 0 0 1 233.101 46.4 Q 233.101 47.596 232.616 49.1 A 16.783 16.783 0 0 1 232.001 50.7 L 230.901 53.2 A 0.875 0.875 0 0 0 230.906 53.298 Q 230.93 53.508 231.063 53.572 A 0.315 0.315 0 0 0 231.201 53.6 Q 232.801 53.6 234.701 50.8 A 8.21 8.21 0 0 0 235.737 48.897 A 8.877 8.877 0 0 0 236.301 45.7 A 9.155 9.155 0 0 0 236.253 44.736 Q 235.91 41.5 233.101 41.5 Q 230.601 41.5 226.575 45.223 A 46.318 46.318 0 0 0 224.201 47.6 A 33.206 33.206 0 0 0 223.576 48.276 Q 221.971 50.055 219.051 53.665 A 429.262 429.262 0 0 0 216.701 56.6 Q 221.301 46.1 221.301 38.9 A 18.343 18.343 0 0 0 221.296 38.458 Q 221.246 36.403 220.722 35.535 A 1.155 1.155 0 0 0 219.701 34.9 A 1.355 1.355 0 0 0 218.866 35.182 Q 218.104 35.756 217.701 37.5 A 26.282 26.282 0 0 1 217.324 38.81 Q 216.626 41.021 215.401 43.7 Q 213.801 47.2 211.101 51.6 Q 210.201 53 209.451 54.2 Q 208.701 55.4 208.001 56.5 A 0.296 0.296 0 0 0 207.946 56.577 Q 207.901 56.666 207.901 56.8 A 0.56 0.56 0 0 0 207.905 56.869 Q 207.937 57.126 208.219 57.184 A 0.917 0.917 0 0 0 208.401 57.2 A 0.673 0.673 0 0 0 208.443 57.199 Q 208.601 57.189 208.601 57.1 Q 209.401 56 210.651 54.15 A 50.299 50.299 0 0 0 211.467 52.901 Q 211.891 52.23 212.35 51.467 A 103.738 103.738 0 0 0 213.501 49.5 A 274.582 274.582 0 0 0 213.669 49.214 Q 215.253 46.503 216.251 44.65 Q 217.014 43.233 217.328 42.318 A 4.878 4.878 0 0 0 217.501 41.7 Q 217.501 44.456 217.185 46.801 A 25.395 25.395 0 0 1 216.501 50.2 Q 215.501 54 214.001 57.8 Q 212.501 61.6 210.701 65.4 Q 210.301 66.1 210.051 66.8 A 13.102 13.102 0 0 1 209.907 67.186 A 11.224 11.224 0 0 1 209.501 68.1 A 0.511 0.511 0 0 0 209.514 68.212 Q 209.596 68.578 210.2 69.088 A 7.135 7.135 0 0 0 210.601 69.4 Q 211.34 69.803 211.899 69.936 Z M 56.001 72.5 A 33.108 33.108 0 0 0 66.652 70.854 A 27.921 27.921 0 0 0 77.701 63.9 A 29.04 29.04 0 0 0 86.259 44.02 A 38.516 38.516 0 0 0 86.301 42.2 A 26.55 26.55 0 0 0 80.325 25.407 A 33.827 33.827 0 0 0 79.501 24.4 Q 72.801 16.5 63.001 14.7 A 52.712 52.712 0 0 0 61.911 16.453 Q 60.814 18.289 59.501 20.75 A 94.285 94.285 0 0 0 57.959 23.781 Q 56.639 26.488 55.201 29.8 Q 53.521 33.654 51.012 39.314 A 2896.55 2896.55 0 0 1 50.951 39.45 A 204.519 204.519 0 0 1 48.481 44.797 Q 47.174 47.528 45.645 50.552 A 366.687 366.687 0 0 1 44.601 52.6 A 120.668 120.668 0 0 1 42.442 56.804 Q 41.073 59.341 39.751 61.45 A 59.245 59.245 0 0 1 37.704 64.511 Q 36.64 65.995 35.587 67.239 A 34.643 34.643 0 0 1 35.101 67.8 A 64.917 64.917 0 0 0 41.964 70.312 A 53.823 53.823 0 0 0 45.951 71.35 A 49.832 49.832 0 0 0 52.648 72.364 A 42.155 42.155 0 0 0 56.001 72.5 Z M 124.746 71.072 A 8.72 8.72 0 0 0 127.601 71.5 A 15.692 15.692 0 0 0 131.673 70.933 Q 135.707 69.85 140.301 66.7 A 42.739 42.739 0 0 0 142.407 65.158 A 35.367 35.367 0 0 0 145.901 62.05 A 37.31 37.31 0 0 0 147.057 60.816 A 31.999 31.999 0 0 0 150.001 57 A 31.668 31.668 0 0 0 150.103 56.84 Q 150.731 55.851 150.865 55.465 A 0.542 0.542 0 0 0 150.901 55.3 L 150.701 55.1 A 0.474 0.474 0 0 0 150.485 55.16 Q 150.13 55.344 149.625 56.09 A 11.108 11.108 0 0 0 149.301 56.6 A 34.147 34.147 0 0 1 148.932 57.188 Q 148.337 58.111 147.801 58.8 Q 147.364 59.363 147.004 59.808 A 40.63 40.63 0 0 1 146.601 60.3 Q 145.201 62 143.451 63.45 Q 141.701 64.9 139.701 66.2 A 25.404 25.404 0 0 1 137.783 67.339 Q 134.294 69.2 131.301 69.2 A 8.495 8.495 0 0 1 130.672 69.178 Q 126.363 68.858 125.448 64.031 A 15.81 15.81 0 0 1 125.201 61.1 Q 125.201 55.9 129.301 49.4 Q 131.082 46.541 133.105 44.363 A 23.313 23.313 0 0 1 138.001 40.3 Q 139.61 39.335 139.925 38.952 A 0.27 0.27 0 0 0 140.001 38.8 A 0.25 0.25 0 0 0 139.938 38.632 Q 139.783 38.453 139.247 38.412 A 4.62 4.62 0 0 0 138.901 38.4 Q 131.701 38.4 125.801 47.7 A 45.163 45.163 0 0 0 125.734 47.808 Q 123.63 51.213 122.406 54.548 A 26.436 26.436 0 0 0 120.701 63.7 A 16.841 16.841 0 0 0 120.708 64.171 Q 120.863 69.728 124.746 71.072 Z M 27.701 64.8 L 31.101 66.1 A 16.626 16.626 0 0 0 32.305 64.742 Q 32.897 64.004 33.521 63.094 A 42.533 42.533 0 0 0 34.801 61.1 Q 36.801 57.8 39.001 53.1 Q 41.501 48 43.751 42.85 Q 46.001 37.7 48.301 32.6 Q 54.701 18.7 59.201 14.1 Q 56.401 13.6 53.451 13.3 Q 50.501 13 47.401 13 L 45.301 13 Q 44.601 26.3 40.201 40.3 A 100.369 100.369 0 0 1 36.1 51.011 Q 32.389 59.175 27.701 64.8 Z M 109.601 62.2 L 112.701 62.2 A 7.207 7.207 0 0 1 111.918 62.622 Q 111.089 63 110.401 63 A 1.494 1.494 0 0 1 110.19 62.986 Q 110.026 62.963 109.901 62.9 A 1.89 1.89 0 0 0 109.31 62.8 A 1.801 1.801 0 0 0 109.301 62.8 A 0.034 0.034 0 0 1 109.336 62.816 Q 109.421 63 106.662 65.367 A 166.235 166.235 0 0 1 105.801 66.1 A 23.776 23.776 0 0 1 103.926 67.544 Q 101.876 68.953 100.216 69.293 A 5.066 5.066 0 0 1 99.201 69.4 A 4.275 4.275 0 0 1 97.449 69.068 Q 95.301 68.111 95.301 64.4 Q 95.301 58.3 99.901 51.9 Q 98.301 48 98.301 43.6 A 18.371 18.371 0 0 1 98.675 39.811 A 14.022 14.022 0 0 1 100.001 36.1 Q 103.301 29.8 108.201 29.8 A 5.772 5.772 0 0 1 113.479 33.062 Q 114.956 35.68 115.401 40.4 A 7.284 7.284 0 0 1 117.41 40.737 Q 120.401 41.733 120.401 45.6 A 19.74 19.74 0 0 1 120.363 46.888 Q 120.178 49.7 119.101 49.7 A 0.366 0.366 0 0 1 118.891 49.642 Q 118.701 49.514 118.701 49.1 Q 118.701 48.9 118.751 48.7 Q 118.785 48.566 118.841 48.386 A 10.585 10.585 0 0 1 118.901 48.2 A 5.339 5.339 0 0 1 118.906 47.965 Q 118.917 47.722 118.951 47.55 Q 118.999 47.309 119.001 47.207 A 0.434 0.434 0 0 0 119.001 47.2 A 4.17 4.17 0 0 0 118.836 45.999 A 3.28 3.28 0 0 0 118.001 44.6 A 3.991 3.991 0 0 0 117.02 43.868 A 3.252 3.252 0 0 0 115.501 43.5 A 60.479 60.479 0 0 1 114.409 50.569 Q 112.832 57.731 109.601 62.2 Z M 13.201 75.4 A 22.583 22.583 0 0 0 20.307 74.219 A 27.337 27.337 0 0 0 22.701 73.3 Q 28.101 70.8 30.301 67.5 Q 28.601 66.6 26.901 65.8 Q 19.701 73.9 11.901 73.9 A 7.877 7.877 0 0 1 11.304 73.88 Q 10.367 73.808 10.104 73.488 A 0.44 0.44 0 0 1 10.001 73.2 Q 10.001 72.779 11.208 72.713 A 9.031 9.031 0 0 1 11.701 72.7 A 13.932 13.932 0 0 0 18.309 70.946 Q 21.868 69.049 25.401 65.1 A 65.867 65.867 0 0 0 19.908 62.891 Q 14.36 60.966 10.186 60.902 A 18.622 18.622 0 0 0 9.901 60.9 Q 8.301 60.9 6.951 61.25 A 16.425 16.425 0 0 0 5.436 61.719 A 13.243 13.243 0 0 0 4.501 62.1 A 6.42 6.42 0 0 0 3.003 63.144 A 4.448 4.448 0 0 0 1.601 66.5 A 6.825 6.825 0 0 0 3.449 71.158 Q 4.32 72.135 5.601 73 A 14.331 14.331 0 0 0 9.897 74.973 A 12.876 12.876 0 0 0 13.201 75.4 Z M 142.452 48.414 A 1.6 1.6 0 0 0 143.001 48.5 Q 144.301 48.5 145.201 45.7 Q 145.901 43.6 145.901 41.8 A 14.03 14.03 0 0 0 145.873 40.894 Q 145.607 36.784 142.832 35.694 A 6.349 6.349 0 0 0 140.501 35.3 A 10.686 10.686 0 0 0 139.173 35.389 Q 138.323 35.495 137.357 35.731 A 24.767 24.767 0 0 0 135.401 36.3 Q 132.689 37.135 131.863 38.066 A 1.256 1.256 0 0 0 131.501 38.9 A 0.421 0.421 0 0 0 131.502 38.927 Q 131.519 39.2 131.901 39.2 Q 132.076 39.2 134.165 38.052 A 163.527 163.527 0 0 0 134.801 37.7 A 22.714 22.714 0 0 1 135.321 37.448 Q 136.883 36.716 138.112 36.451 A 6.14 6.14 0 0 1 139.401 36.3 A 5.043 5.043 0 0 1 140.023 36.337 Q 143.001 36.707 143.001 40.8 A 7.264 7.264 0 0 1 142.916 41.863 Q 142.833 42.419 142.67 43.056 A 18.256 18.256 0 0 1 142.301 44.3 Q 141.832 45.941 141.73 46.666 A 2.477 2.477 0 0 0 141.701 47 Q 141.701 48.14 142.452 48.414 Z M 113.801 40.6 A 17.96 17.96 0 0 0 109.475 42.576 Q 105.103 45.287 101.001 50.8 A 18.719 18.719 0 0 1 100.856 49.828 A 21.563 21.563 0 0 1 100.701 47.2 Q 100.701 44.8 101.101 42.55 Q 101.501 40.3 102.401 38.3 A 25.616 25.616 0 0 1 103.362 36.288 Q 104.627 33.929 105.995 32.868 A 3.726 3.726 0 0 1 108.301 32 A 2.743 2.743 0 0 1 109.215 32.155 Q 111.451 32.939 112.998 37.678 A 35.025 35.025 0 0 1 113.801 40.6 Z M 110.322 55.454 A 55.265 55.265 0 0 0 111.301 53.1 Q 113.901 46.5 113.901 43.4 Q 111.861 43.678 107.67 46.968 A 58.91 58.91 0 0 0 107.001 47.5 A 53.75 53.75 0 0 0 104.978 49.204 Q 102.135 51.733 101.301 53.4 Q 103.211 60.314 105.867 61.518 A 2.875 2.875 0 0 0 106.401 61.7 Q 108.329 59.933 110.322 55.454 Z M 173.275 42.54 A 7.492 7.492 0 0 0 174.401 38.6 A 9.107 9.107 0 0 0 174.359 37.684 Q 174.267 36.774 173.97 36.304 A 0.981 0.981 0 0 0 173.101 35.8 Q 170.901 35.8 164.501 45.5 Q 164.101 46.2 163.451 47.35 Q 162.801 48.5 162.001 50 Q 170.665 46.856 173.275 42.54 Z M 153.801 53.5 L 152.701 53.6 Q 152.014 55.319 151.326 57.605 A 81.138 81.138 0 0 0 150.701 59.8 A 145.207 145.207 0 0 0 149.937 62.758 Q 149.289 65.375 148.601 68.5 A 48.797 48.797 0 0 0 151.543 64.675 Q 152.894 62.74 154.258 60.46 A 94.66 94.66 0 0 0 155.901 57.6 Q 155.501 56.9 155.001 55.9 L 153.801 53.5 Z M 99.501 66.4 A 4.794 4.794 0 0 0 101.484 65.926 Q 103.081 65.2 104.917 63.36 A 25.598 25.598 0 0 0 106.001 62.2 A 3.654 3.654 0 0 1 103.874 61.086 Q 101.979 59.222 100.601 54.3 A 41.09 41.09 0 0 0 99.157 56.9 Q 97.834 59.52 97.454 61.454 A 7.533 7.533 0 0 0 97.301 62.9 Q 97.301 65.295 98.331 66.051 A 1.923 1.923 0 0 0 99.501 66.4 Z" vector-effect="non-scaling-stroke"/></g></svg>