<svg width="287.402" height="79" viewBox="0 0 287.402 79" xmlns="http://www.w3.org/2000/svg"><g id="svgGroup" stroke-linecap="round" fill-rule="evenodd" font-size="9pt" stroke="#000" stroke-width="0.25mm" fill="#000" style="stroke:#000;stroke-width:0.25mm;fill:#000"><path d="M 51.502 21.7 L 42.802 19.8 Q 41.602 29.8 38.602 39.3 A 113.198 113.198 0 0 1 35.926 46.929 A 95.211 95.211 0 0 1 34.152 51.15 Q 31.702 56.6 28.602 61.1 A 44.663 44.663 0 0 1 24.074 66.849 Q 17.424 73.9 10.002 73.9 A 7.877 7.877 0 0 1 9.405 73.88 Q 8.468 73.808 8.205 73.488 A 0.44 0.44 0 0 1 8.102 73.2 Q 8.102 72.779 9.308 72.713 A 9.031 9.031 0 0 1 9.802 72.7 Q 19.002 72.7 27.202 60.1 A 79.28 79.28 0 0 0 33.126 49.138 A 101.859 101.859 0 0 0 36.902 39.3 Q 38.402 34.5 39.552 29.5 Q 40.702 24.5 41.402 19.5 Q 28.502 16.8 21.102 16.8 Q 5.443 16.8 5.014 27.3 A 14.695 14.695 0 0 0 5.002 27.9 Q 5.002 34.365 11.489 39.608 A 30.958 30.958 0 0 0 13.502 41.1 A 2.416 2.416 0 0 1 13.656 41.226 Q 13.887 41.43 13.901 41.581 A 0.208 0.208 0 0 1 13.902 41.6 A 0.315 0.315 0 0 1 13.874 41.738 Q 13.809 41.872 13.599 41.895 A 0.875 0.875 0 0 1 13.502 41.9 Q 13.402 41.9 13.002 41.7 Q 6.672 38.083 3.92 33.668 A 13.5 13.5 0 0 1 1.802 26.4 Q 1.802 20.1 7.902 17.1 A 19.471 19.471 0 0 1 11.011 15.94 A 24.388 24.388 0 0 1 13.102 15.45 Q 16.002 14.9 19.602 14.9 A 64.919 64.919 0 0 1 24.991 15.151 Q 31.798 15.723 41.602 17.6 Q 42.002 14.7 42.202 11.85 Q 42.402 9 42.402 6.2 L 42.402 5.05 A 11.011 11.011 0 0 0 42.39 4.562 Q 42.367 4.056 42.302 3.4 Q 42.212 2.595 42.203 1.95 A 10.25 10.25 0 0 1 42.202 1.8 L 42.202 0.7 A 1.83 1.83 0 0 1 42.216 0.462 Q 42.25 0.207 42.364 0.093 A 0.322 0.322 0 0 1 42.602 0 A 0.078 0.078 0 0 1 42.652 0.025 Q 42.74 0.106 42.879 0.445 A 5.758 5.758 0 0 1 42.902 0.5 Q 43.305 2.717 43.437 5.792 A 74.855 74.855 0 0 1 43.502 9 Q 43.502 11.1 43.352 13.3 Q 43.202 15.5 43.002 17.9 Q 43.191 17.9 45.339 18.256 A 332.487 332.487 0 0 1 45.602 18.3 Q 48.002 18.7 52.602 19.7 Q 60.965 5.7 70.916 4.855 A 15.182 15.182 0 0 1 72.202 4.8 A 11.431 11.431 0 0 1 74.615 5.032 Q 78.702 5.918 78.702 10.2 A 3.82 3.82 0 0 1 78.69 10.514 Q 78.633 11.2 78.302 11.2 Q 77.902 11.2 77.902 10.4 A 4.097 4.097 0 0 0 77.535 8.604 Q 76.7 6.873 73.967 6.566 A 11.374 11.374 0 0 0 72.702 6.5 A 9.179 9.179 0 0 0 67.774 8.091 Q 64.403 10.229 60.869 15.24 A 64.819 64.819 0 0 0 57.502 20.6 A 168.198 168.198 0 0 0 61.212 21.273 Q 63.046 21.583 64.673 21.809 A 87.373 87.373 0 0 0 66.552 22.05 Q 69.323 22.374 71.446 22.465 A 36.531 36.531 0 0 0 73.002 22.5 Q 82.702 22.5 82.702 17.7 Q 82.702 17 82.502 16.4 A 2.371 2.371 0 0 1 82.327 16.206 Q 82.16 15.997 82.117 15.819 A 0.508 0.508 0 0 1 82.102 15.7 A 0.666 0.666 0 0 1 82.109 15.594 Q 82.139 15.409 82.287 15.401 A 0.253 0.253 0 0 1 82.302 15.4 A 0.555 0.555 0 0 1 82.658 15.55 Q 83.01 15.846 83.363 16.729 A 9.801 9.801 0 0 1 83.502 17.1 A 8.593 8.593 0 0 1 83.775 18.112 Q 83.902 18.738 83.902 19.3 A 5.079 5.079 0 0 1 80.971 24.148 Q 78.542 25.4 74.102 25.4 A 35.297 35.297 0 0 1 70.883 25.231 Q 67.217 24.891 61.85 23.866 A 212.509 212.509 0 0 1 56.202 22.7 Q 55.902 23.4 53.402 28.5 Q 51.488 32.405 48.284 38.947 A 68664.637 68664.637 0 0 0 46.202 43.2 Q 49.102 41.6 57.802 41.6 A 79.295 79.295 0 0 1 62.331 41.723 A 57.679 57.679 0 0 1 66.452 42.1 A 49.819 49.819 0 0 1 69.639 42.614 Q 71.208 42.923 72.58 43.315 A 28.95 28.95 0 0 1 73.202 43.5 Q 73.627 43.67 73.691 43.84 A 0.17 0.17 0 0 1 73.702 43.9 A 0.315 0.315 0 0 1 73.674 44.038 Q 73.609 44.172 73.399 44.195 A 0.875 0.875 0 0 1 73.302 44.2 Q 72.996 44.2 72.455 44.171 A 42.889 42.889 0 0 1 72.102 44.15 A 41.009 41.009 0 0 1 71.28 44.09 Q 70.817 44.052 70.302 44 Q 68.202 43.7 67.102 43.7 A 85.212 85.212 0 0 0 60.903 43.92 A 78.231 78.231 0 0 0 60.502 43.95 Q 57.302 44.2 54.402 44.8 Q 44.902 46.5 44.902 50.6 A 0.666 0.666 0 0 0 44.905 50.659 Q 44.914 50.762 44.952 50.95 Q 45.002 51.2 45.102 51.5 A 7.768 7.768 0 0 1 45.226 51.806 Q 45.391 52.242 45.401 52.472 A 0.658 0.658 0 0 1 45.402 52.5 A 0.929 0.929 0 0 1 44.693 52.165 Q 44.417 51.861 44.227 51.28 A 4.655 4.655 0 0 1 44.202 51.2 A 7.225 7.225 0 0 1 43.735 50.399 Q 43.522 49.97 43.411 49.569 A 3.374 3.374 0 0 1 43.302 49 Q 39.902 55.5 36.852 60.35 Q 33.802 65.2 30.902 68.5 Q 24.703 75.424 18.2 77.782 A 19.81 19.81 0 0 1 11.402 79 A 18.564 18.564 0 0 1 7.764 78.66 A 13.856 13.856 0 0 1 4.102 77.4 A 8.924 8.924 0 0 1 2.12 76.173 A 5.684 5.684 0 0 1 0.002 71.6 Q 0.002 67.4 4.502 65.2 Q 6.202 64.2 8.252 63.8 Q 10.302 63.4 12.502 63.4 A 4.122 4.122 0 0 1 12.785 63.409 Q 13.402 63.452 13.402 63.7 A 0.2 0.2 0 0 1 13.293 63.872 Q 13.122 63.98 12.681 63.997 A 4.593 4.593 0 0 1 12.502 64 A 15.196 15.196 0 0 0 9.159 64.352 A 11.703 11.703 0 0 0 5.902 65.6 A 7.78 7.78 0 0 0 4.042 66.864 A 5.427 5.427 0 0 0 2.302 71 A 5.133 5.133 0 0 0 4.119 75.047 A 7.055 7.055 0 0 0 5.002 75.7 A 9.907 9.907 0 0 0 9.55 77.164 A 12.178 12.178 0 0 0 10.502 77.2 A 18.707 18.707 0 0 0 21.688 73.429 A 28.177 28.177 0 0 0 26.102 69.4 A 40.226 40.226 0 0 0 28.221 66.896 Q 29.338 65.467 30.476 63.788 A 69.234 69.234 0 0 0 31.002 63 Q 33.502 59.2 36.002 54.2 Q 36.844 52.516 38.155 49.747 A 552.914 552.914 0 0 0 39.002 47.95 Q 40.856 43.998 43.472 38.094 A 899.1 899.1 0 0 0 43.602 37.8 A 262.339 262.339 0 0 1 45.692 33.189 Q 46.839 30.725 47.902 28.6 A 256.475 256.475 0 0 1 49.346 25.755 Q 50.502 23.513 51.502 21.7 Z M 257.702 62 A 18.89 18.89 0 0 0 257.86 64.543 Q 258.658 70.4 263.502 70.4 Q 270.202 70.4 277.902 55.5 L 278.102 54.9 A 0.442 0.442 0 0 0 278.089 54.789 Q 278.054 54.653 277.921 54.615 A 0.432 0.432 0 0 0 277.802 54.6 Q 277.639 54.6 277.279 54.996 A 6.209 6.209 0 0 0 277.102 55.2 A 324.917 324.917 0 0 1 275.724 57.386 Q 273.616 60.7 272.439 62.332 A 19.722 19.722 0 0 1 271.702 63.3 Q 267.502 68.7 264.402 68.7 Q 261.802 68.7 261.802 63.8 Q 261.802 61.174 262.417 57.849 A 58.012 58.012 0 0 1 263.302 53.9 Q 264.133 50.397 265.141 47.599 A 35.33 35.33 0 0 1 266.602 44.1 A 4.403 4.403 0 0 0 266.699 44.025 Q 267.462 43.419 268.402 42.15 Q 269.027 41.306 269.769 40.209 A 93.231 93.231 0 0 0 270.702 38.8 Q 273.102 34.7 273.102 32.9 A 3.637 3.637 0 0 0 273.101 32.825 Q 273.082 31.904 272.591 31.454 A 1.559 1.559 0 0 0 271.902 31.1 Q 274.202 26.4 276.702 21.35 Q 279.202 16.3 282.002 11.1 A 313.414 313.414 0 0 1 283.03 9.121 Q 283.527 8.172 283.99 7.307 A 180.281 180.281 0 0 1 285.052 5.35 A 206.572 206.572 0 0 0 285.331 4.843 Q 286.486 2.731 287.202 1.3 L 287.402 0.9 Q 287.402 0.329 286.469 0.224 A 4.204 4.204 0 0 0 286.002 0.2 Q 282.302 0.2 280.602 2.5 Q 279.302 5.2 278.252 7.4 Q 277.661 8.638 277.15 9.717 A 640.438 640.438 0 0 0 276.402 11.3 Q 274.502 15.6 272.402 20.4 A 522.829 522.829 0 0 0 271.346 22.831 A 600.014 600.014 0 0 0 268.102 30.5 A 22.999 22.999 0 0 0 260.799 32.661 Q 254.629 35.597 248.302 42.3 Q 242.463 48.486 239.999 54.271 A 20.927 20.927 0 0 0 238.202 62.5 Q 238.202 67.065 240.75 68.269 A 4.993 4.993 0 0 0 242.902 68.7 A 6.402 6.402 0 0 0 245.391 68.163 Q 248.856 66.707 252.802 61.3 A 33.577 33.577 0 0 0 253.061 60.928 Q 254.181 59.294 255.702 56.7 A 125.051 125.051 0 0 0 256.803 54.78 Q 258.058 52.55 259.502 49.8 A 129.274 129.274 0 0 0 258.784 53.237 Q 258.094 56.796 257.844 59.378 A 27.501 27.501 0 0 0 257.702 62 Z M 125.002 69.5 L 125.002 69.3 A 37.817 37.817 0 0 0 125.307 68.158 Q 125.438 67.638 125.575 67.048 A 80.658 80.658 0 0 0 125.852 65.8 L 126.902 60.9 Q 127.472 58.24 128.313 54.27 A 5277.888 5277.888 0 0 0 128.402 53.85 A 414.529 414.529 0 0 1 129.266 49.873 Q 129.719 47.831 130.244 45.549 A 743.639 743.639 0 0 1 130.602 44 Q 130.503 43.802 130.255 43.061 A 36.695 36.695 0 0 1 130.252 43.05 A 17.51 17.51 0 0 0 130.071 42.538 Q 129.861 41.966 129.547 41.209 A 57.153 57.153 0 0 0 129.502 41.1 Q 129.002 39.8 128.702 39.2 L 128.402 38.6 A 0.696 0.696 0 0 1 128.585 38.152 Q 128.96 37.703 130.102 37.3 A 92.188 92.188 0 0 1 131.85 36.655 Q 135.364 35.4 136.502 35.4 Q 137.481 35.4 137.821 35.783 A 0.75 0.75 0 0 1 138.002 36.3 A 0.008 0.008 0 0 0 137.995 36.293 Q 137.8 36.293 133.372 47.871 A 1820.46 1820.46 0 0 0 132.902 49.1 L 132.902 50 A 13.299 13.299 0 0 1 132.875 50.88 Q 132.747 52.8 132.002 52.8 A 0.111 0.111 0 0 1 131.947 52.782 Q 131.853 52.726 131.702 52.5 Q 130.902 55 130.152 57.25 Q 129.402 59.5 128.802 61.7 Q 131.002 58.1 133.352 54.8 A 85.226 85.226 0 0 1 138.046 48.782 A 78.417 78.417 0 0 1 138.202 48.6 Q 145.702 39.9 150.602 39.9 A 4.311 4.311 0 0 1 151.441 39.974 Q 152.759 40.237 152.888 41.43 A 2.511 2.511 0 0 1 152.902 41.7 A 3.101 3.101 0 0 1 152.866 42.148 Q 152.799 42.61 152.602 43.2 Q 151.747 46.431 150.485 51.242 A 6446.922 6446.922 0 0 0 150.352 51.75 A 595.579 595.579 0 0 1 149.262 55.845 Q 148.289 59.45 147.102 63.7 A 43.57 43.57 0 0 0 151.932 59.573 A 31.568 31.568 0 0 0 156.102 54.5 A 6.209 6.209 0 0 1 156.279 54.296 Q 156.639 53.9 156.802 53.9 A 0.315 0.315 0 0 1 156.94 53.928 Q 157.073 53.993 157.097 54.203 A 0.875 0.875 0 0 1 157.102 54.3 A 0.454 0.454 0 0 1 157.084 54.415 Q 157.035 54.601 156.846 54.926 A 6.085 6.085 0 0 1 156.802 55 A 42.692 42.692 0 0 1 151.591 62.385 A 34.619 34.619 0 0 1 146.102 67.4 Q 145.702 68 144.802 68 Q 144.102 68 144.102 67.2 A 1.429 1.429 0 0 1 144.11 67.078 Q 144.141 66.767 144.283 65.811 A 151.316 151.316 0 0 1 144.352 65.35 Q 144.543 64.087 144.94 62.032 A 202.296 202.296 0 0 1 145.202 60.7 A 124.755 124.755 0 0 0 146.096 56.433 A 116.994 116.994 0 0 0 146.102 56.4 Q 146.502 54.3 146.902 52.1 Q 147.402 49.6 147.552 47.45 Q 147.702 45.3 147.802 43.5 A 14.55 14.55 0 0 0 145.957 44.519 Q 144.566 45.414 143.052 46.75 A 56.019 56.019 0 0 0 141.062 48.599 Q 139.339 50.275 137.402 52.4 A 91.898 91.898 0 0 0 134.152 56.181 Q 130.933 60.153 129.216 63.375 A 27.803 27.803 0 0 0 129.202 63.4 Q 127.802 66.1 127.102 69.2 Q 126.841 70.242 126.411 70.606 A 0.771 0.771 0 0 1 125.902 70.8 A 0.864 0.864 0 0 1 125.457 70.692 Q 125.108 70.487 125.026 69.894 A 2.914 2.914 0 0 1 125.002 69.5 Z M 209.302 69.5 L 209.302 69.3 A 37.817 37.817 0 0 0 209.607 68.158 Q 209.738 67.638 209.875 67.048 A 80.658 80.658 0 0 0 210.152 65.8 L 211.202 60.9 Q 211.772 58.24 212.613 54.27 A 5277.888 5277.888 0 0 0 212.702 53.85 A 414.529 414.529 0 0 1 213.566 49.873 Q 214.019 47.831 214.544 45.549 A 743.639 743.639 0 0 1 214.902 44 Q 214.803 43.802 214.555 43.061 A 36.695 36.695 0 0 1 214.552 43.05 A 17.51 17.51 0 0 0 214.371 42.538 Q 214.161 41.966 213.847 41.209 A 57.153 57.153 0 0 0 213.802 41.1 Q 213.302 39.8 213.002 39.2 L 212.702 38.6 A 0.696 0.696 0 0 1 212.885 38.152 Q 213.26 37.703 214.402 37.3 A 92.188 92.188 0 0 1 216.15 36.655 Q 219.664 35.4 220.802 35.4 Q 221.781 35.4 222.121 35.783 A 0.75 0.75 0 0 1 222.302 36.3 A 0.008 0.008 0 0 0 222.295 36.293 Q 222.1 36.293 217.672 47.871 A 1820.46 1820.46 0 0 0 217.202 49.1 L 217.202 50 A 13.299 13.299 0 0 1 217.175 50.88 Q 217.047 52.8 216.302 52.8 A 0.111 0.111 0 0 1 216.247 52.782 Q 216.153 52.726 216.002 52.5 Q 215.202 55 214.452 57.25 Q 213.702 59.5 213.102 61.7 Q 215.302 58.1 217.652 54.8 A 85.226 85.226 0 0 1 222.346 48.782 A 78.417 78.417 0 0 1 222.502 48.6 Q 230.002 39.9 234.902 39.9 A 4.311 4.311 0 0 1 235.741 39.974 Q 237.059 40.237 237.188 41.43 A 2.511 2.511 0 0 1 237.202 41.7 A 3.101 3.101 0 0 1 237.166 42.148 Q 237.099 42.61 236.902 43.2 Q 236.047 46.431 234.785 51.242 A 6446.922 6446.922 0 0 0 234.652 51.75 A 595.579 595.579 0 0 1 233.562 55.845 Q 232.589 59.45 231.402 63.7 A 43.57 43.57 0 0 0 236.232 59.573 A 31.568 31.568 0 0 0 240.402 54.5 A 6.209 6.209 0 0 1 240.579 54.296 Q 240.939 53.9 241.102 53.9 A 0.315 0.315 0 0 1 241.24 53.928 Q 241.373 53.993 241.397 54.203 A 0.875 0.875 0 0 1 241.402 54.3 A 0.454 0.454 0 0 1 241.384 54.415 Q 241.335 54.601 241.146 54.926 A 6.085 6.085 0 0 1 241.102 55 A 42.692 42.692 0 0 1 235.891 62.385 A 34.619 34.619 0 0 1 230.402 67.4 Q 230.002 68 229.102 68 Q 228.402 68 228.402 67.2 A 1.429 1.429 0 0 1 228.41 67.078 Q 228.441 66.767 228.583 65.811 A 151.316 151.316 0 0 1 228.652 65.35 Q 228.843 64.087 229.24 62.032 A 202.296 202.296 0 0 1 229.502 60.7 A 124.755 124.755 0 0 0 230.396 56.433 A 116.994 116.994 0 0 0 230.402 56.4 Q 230.802 54.3 231.202 52.1 Q 231.702 49.6 231.852 47.45 Q 232.002 45.3 232.102 43.5 A 14.55 14.55 0 0 0 230.257 44.519 Q 228.866 45.414 227.352 46.75 A 56.019 56.019 0 0 0 225.362 48.599 Q 223.639 50.275 221.702 52.4 A 91.898 91.898 0 0 0 218.452 56.181 Q 215.233 60.153 213.516 63.375 A 27.803 27.803 0 0 0 213.502 63.4 Q 212.102 66.1 211.402 69.2 Q 211.141 70.242 210.711 70.606 A 0.771 0.771 0 0 1 210.202 70.8 A 0.864 0.864 0 0 1 209.757 70.692 Q 209.408 70.487 209.326 69.894 A 2.914 2.914 0 0 1 209.302 69.5 Z M 183.702 61.4 A 20.015 20.015 0 0 0 183.796 63.399 Q 184.52 70.6 190.802 70.6 A 13.69 13.69 0 0 0 194.016 70.204 Q 197.911 69.266 202.202 66.1 A 39.693 39.693 0 0 0 206.411 62.568 A 29.975 29.975 0 0 0 210.902 57.1 A 20.775 20.775 0 0 0 211.175 56.607 Q 211.561 55.887 211.664 55.521 A 0.849 0.849 0 0 0 211.702 55.3 A 0.673 0.673 0 0 0 211.701 55.258 Q 211.691 55.1 211.602 55.1 A 0.587 0.587 0 0 0 211.44 55.124 Q 210.885 55.283 210.102 56.5 Q 207.302 61.2 203.102 64.5 Q 198.102 68.5 193.502 68.5 A 8.417 8.417 0 0 1 193.261 68.497 Q 188.673 68.366 187.74 63.178 A 16.911 16.911 0 0 1 187.502 60.2 Q 187.502 58 188.302 55.6 A 18.25 18.25 0 0 0 190.239 55.327 Q 192.931 54.8 195.708 53.452 A 32.491 32.491 0 0 0 200.302 50.7 A 26.338 26.338 0 0 0 203.417 48.086 Q 207.202 44.325 207.202 40.4 A 6.05 6.05 0 0 0 207.17 39.773 A 4.238 4.238 0 0 0 205.602 36.8 A 4.433 4.433 0 0 0 205.336 36.572 Q 203.981 35.5 201.802 35.5 A 5.742 5.742 0 0 0 201.246 35.529 Q 200.173 35.633 198.687 36.12 A 26.439 26.439 0 0 0 197.102 36.7 Q 193.602 38.1 193.602 39.3 A 0.076 0.076 0 0 0 193.635 39.365 Q 193.668 39.389 193.735 39.397 A 0.601 0.601 0 0 0 193.802 39.4 Q 194.102 39.4 196.602 37.8 A 15.294 15.294 0 0 1 198.158 37.009 Q 199.796 36.3 201.102 36.3 A 3.439 3.439 0 0 1 201.425 36.315 Q 201.985 36.368 202.419 36.61 A 2.338 2.338 0 0 1 203.302 37.5 A 6.075 6.075 0 0 1 203.511 37.868 A 4.972 4.972 0 0 1 204.102 40.2 A 9.27 9.27 0 0 1 203.402 43.696 Q 202.745 45.322 201.474 46.924 A 21.21 21.21 0 0 1 198.902 49.6 Q 196.129 52.053 193.47 53.198 A 11.497 11.497 0 0 1 188.902 54.2 L 188.802 54.1 L 188.702 54 A 25.203 25.203 0 0 1 190.754 49.669 A 33.793 33.793 0 0 1 193.602 45.6 A 31.809 31.809 0 0 1 193.796 45.348 Q 195.209 43.531 196.718 42.14 A 18.757 18.757 0 0 1 200.502 39.4 Q 201.902 38.6 201.902 38.4 Q 201.902 38.152 201.147 38.109 A 6.154 6.154 0 0 0 200.802 38.1 A 8.196 8.196 0 0 0 200.74 38.1 Q 197.372 38.126 193.696 40.92 A 26.896 26.896 0 0 0 190.802 43.5 Q 188.271 46.032 186.753 48.59 A 16.293 16.293 0 0 0 184.802 53.4 Q 184.364 53.275 184.025 53.131 A 3.957 3.957 0 0 1 183.652 52.95 Q 183.202 52.7 182.802 52.6 Q 183.027 53.05 183.252 53.421 A 7.618 7.618 0 0 0 183.602 53.95 Q 183.828 54.262 184.055 54.493 A 3.051 3.051 0 0 0 184.402 54.8 A 35.283 35.283 0 0 0 184.1 56.415 A 27.818 27.818 0 0 0 183.852 58.35 A 38.972 38.972 0 0 0 183.749 59.746 A 30.297 30.297 0 0 0 183.702 61.4 Z M 155.902 43.8 L 158.602 43.8 A 52.011 52.011 0 0 0 166.126 43.233 A 61.706 61.706 0 0 0 169.702 42.6 L 169.802 42.4 L 176.402 27.8 Q 176.877 26.755 177.533 25.168 A 151.431 151.431 0 0 0 177.602 25 A 94.7 94.7 0 0 1 178.272 23.417 Q 178.622 22.608 179.027 21.709 A 167.65 167.65 0 0 1 179.302 21.1 Q 180.102 19.3 183.202 19.3 A 6.661 6.661 0 0 1 183.889 19.333 Q 184.582 19.405 184.935 19.639 A 0.756 0.756 0 0 1 185.302 20.3 A 0.894 0.894 0 0 1 185.244 20.497 Q 184.898 21.45 182.486 26.76 A 1049.61 1049.61 0 0 1 181.602 28.7 Q 178.102 36.436 177.486 37.387 A 0.75 0.75 0 0 1 177.402 37.5 L 176.752 38.15 Q 176.302 38.6 175.702 39.1 Q 175.333 39.745 174.626 41.238 A 103.166 103.166 0 0 0 174.502 41.5 Q 175.883 41.04 179.088 39.943 A 2140.601 2140.601 0 0 0 179.652 39.75 Q 183.302 38.5 189.102 36.5 Q 189.502 36.4 189.802 36.35 Q 190.102 36.3 190.202 36.3 A 1.201 1.201 0 0 1 190.335 36.307 Q 190.602 36.337 190.602 36.5 Q 190.602 38.2 173.702 43 A 3544.628 3544.628 0 0 0 172.286 45.763 Q 171.732 46.847 171.235 47.819 A 1776.216 1776.216 0 0 0 170.302 49.65 Q 169.107 51.997 168.422 53.58 A 31.544 31.544 0 0 0 168.202 54.1 Q 166.902 57.3 166.252 60.25 A 27.262 27.262 0 0 0 165.625 64.934 A 24.513 24.513 0 0 0 165.602 66 Q 165.602 69.3 167.802 69.3 A 5.313 5.313 0 0 0 169.555 68.965 Q 171.19 68.39 173.268 66.825 A 31.58 31.58 0 0 0 174.902 65.5 Q 177.16 63.536 178.262 62.585 A 452.132 452.132 0 0 1 178.302 62.55 L 179.402 61.6 A 0.432 0.432 0 0 1 179.521 61.615 Q 179.654 61.653 179.689 61.789 A 0.442 0.442 0 0 1 179.702 61.9 Q 179.702 62.2 179.402 62.8 A 15.093 15.093 0 0 1 177.971 64.603 Q 176.517 66.192 174.302 67.9 A 31.321 31.321 0 0 1 172.484 69.224 Q 170.708 70.415 169.381 70.85 A 4.477 4.477 0 0 1 168.002 71.1 A 5.794 5.794 0 0 1 165.829 70.725 Q 163.002 69.587 163.002 65 A 22.751 22.751 0 0 1 163.286 61.566 Q 163.792 58.264 165.202 54.1 A 5.85 5.85 0 0 0 163.925 51.882 A 6.828 6.828 0 0 0 163.802 51.75 A 7.036 7.036 0 0 0 162.445 50.653 A 9.416 9.416 0 0 0 161.202 50 Q 159.902 49.4 158.552 48.9 A 58.894 58.894 0 0 1 155.889 47.838 A 64.118 64.118 0 0 1 155.802 47.8 A 2.329 2.329 0 0 1 155.035 47.253 Q 154.502 46.661 154.502 45.7 Q 154.502 44.1 155.902 43.8 Z M 74.199 69.936 A 2.192 2.192 0 0 0 74.702 70 A 0.886 0.886 0 0 0 74.721 70 A 0.675 0.675 0 0 0 75.202 69.8 A 48.498 48.498 0 0 0 75.349 69.403 A 43.2 43.2 0 0 0 75.752 68.25 L 76.202 66.9 Q 77.802 62.8 78.602 60.7 A 619.324 619.324 0 0 0 78.824 60.115 Q 79.417 58.556 79.502 58.3 A 25.304 25.304 0 0 1 79.689 57.978 Q 81.043 55.687 83.386 52.779 A 89.808 89.808 0 0 1 85.902 49.8 Q 90.091 45.154 92.424 44.047 A 3.062 3.062 0 0 1 93.702 43.7 Q 95.083 43.7 95.342 45.483 A 6.417 6.417 0 0 1 95.402 46.4 Q 95.402 47.596 94.917 49.1 A 16.783 16.783 0 0 1 94.302 50.7 L 93.202 53.2 A 0.875 0.875 0 0 0 93.207 53.298 Q 93.231 53.508 93.364 53.572 A 0.315 0.315 0 0 0 93.502 53.6 Q 95.102 53.6 97.002 50.8 A 8.21 8.21 0 0 0 98.038 48.897 A 8.877 8.877 0 0 0 98.602 45.7 A 9.155 9.155 0 0 0 98.554 44.736 Q 98.211 41.5 95.402 41.5 Q 92.902 41.5 88.876 45.223 A 46.318 46.318 0 0 0 86.502 47.6 A 33.206 33.206 0 0 0 85.877 48.276 Q 84.271 50.055 81.352 53.665 A 429.262 429.262 0 0 0 79.002 56.6 Q 83.602 46.1 83.602 38.9 A 18.343 18.343 0 0 0 83.597 38.458 Q 83.547 36.403 83.023 35.535 A 1.155 1.155 0 0 0 82.002 34.9 A 1.355 1.355 0 0 0 81.167 35.182 Q 80.404 35.756 80.002 37.5 A 26.282 26.282 0 0 1 79.624 38.81 Q 78.927 41.021 77.702 43.7 Q 76.102 47.2 73.402 51.6 Q 72.502 53 71.752 54.2 Q 71.002 55.4 70.302 56.5 A 0.296 0.296 0 0 0 70.247 56.577 Q 70.202 56.666 70.202 56.8 A 0.56 0.56 0 0 0 70.206 56.869 Q 70.238 57.126 70.519 57.184 A 0.917 0.917 0 0 0 70.702 57.2 A 0.673 0.673 0 0 0 70.744 57.199 Q 70.902 57.189 70.902 57.1 Q 71.702 56 72.952 54.15 A 50.299 50.299 0 0 0 73.767 52.901 Q 74.192 52.23 74.651 51.467 A 103.738 103.738 0 0 0 75.802 49.5 A 274.582 274.582 0 0 0 75.97 49.214 Q 77.554 46.503 78.552 44.65 Q 79.315 43.233 79.629 42.318 A 4.878 4.878 0 0 0 79.802 41.7 Q 79.802 44.456 79.485 46.801 A 25.395 25.395 0 0 1 78.802 50.2 Q 77.802 54 76.302 57.8 Q 74.802 61.6 73.002 65.4 Q 72.602 66.1 72.352 66.8 A 13.102 13.102 0 0 1 72.207 67.186 A 11.224 11.224 0 0 1 71.802 68.1 A 0.511 0.511 0 0 0 71.815 68.212 Q 71.896 68.578 72.5 69.088 A 7.135 7.135 0 0 0 72.902 69.4 Q 73.641 69.803 74.199 69.936 Z M 114.402 62.2 L 117.502 62.2 A 7.207 7.207 0 0 1 116.719 62.622 Q 115.889 63 115.202 63 A 1.494 1.494 0 0 1 114.991 62.986 Q 114.827 62.963 114.702 62.9 A 1.89 1.89 0 0 0 114.111 62.8 A 1.801 1.801 0 0 0 114.102 62.8 A 0.034 0.034 0 0 1 114.136 62.816 Q 114.222 63 111.463 65.367 A 166.235 166.235 0 0 1 110.602 66.1 A 23.776 23.776 0 0 1 108.727 67.544 Q 106.677 68.953 105.016 69.293 A 5.066 5.066 0 0 1 104.002 69.4 A 4.275 4.275 0 0 1 102.25 69.068 Q 100.102 68.111 100.102 64.4 Q 100.102 58.3 104.702 51.9 Q 103.102 48 103.102 43.6 A 18.371 18.371 0 0 1 103.475 39.811 A 14.022 14.022 0 0 1 104.802 36.1 Q 108.102 29.8 113.002 29.8 A 5.772 5.772 0 0 1 118.28 33.062 Q 119.757 35.68 120.202 40.4 A 7.284 7.284 0 0 1 122.211 40.737 Q 125.202 41.733 125.202 45.6 A 19.74 19.74 0 0 1 125.163 46.888 Q 124.978 49.7 123.902 49.7 A 0.366 0.366 0 0 1 123.692 49.642 Q 123.502 49.514 123.502 49.1 Q 123.502 48.9 123.552 48.7 Q 123.585 48.566 123.642 48.386 A 10.585 10.585 0 0 1 123.702 48.2 A 5.339 5.339 0 0 1 123.707 47.965 Q 123.717 47.722 123.752 47.55 Q 123.8 47.309 123.802 47.207 A 0.434 0.434 0 0 0 123.802 47.2 A 4.17 4.17 0 0 0 123.637 45.999 A 3.28 3.28 0 0 0 122.802 44.6 A 3.991 3.991 0 0 0 121.82 43.868 A 3.252 3.252 0 0 0 120.302 43.5 A 60.479 60.479 0 0 1 119.21 50.569 Q 117.633 57.731 114.402 62.2 Z M 243.402 65 Q 250.702 65 257.702 48.7 A 17.881 17.881 0 0 1 256.583 49.017 Q 255.484 49.286 254.685 49.3 A 4.945 4.945 0 0 1 254.602 49.3 A 0.576 0.576 0 0 1 254.444 49.28 Q 254.266 49.23 254.219 49.048 A 0.589 0.589 0 0 1 254.202 48.9 A 0.466 0.466 0 0 1 254.325 48.603 Q 254.569 48.31 255.296 48.016 A 8.013 8.013 0 0 1 255.602 47.9 A 9.818 9.818 0 0 0 256.673 47.438 Q 257.179 47.185 257.736 46.851 A 23.297 23.297 0 0 0 258.902 46.1 Q 259.302 45.1 259.752 43.85 A 30.71 30.71 0 0 0 260.242 42.365 A 38.764 38.764 0 0 0 260.602 41.1 Q 260.902 40.3 261.302 40.3 Q 262.002 40.3 262.002 41.2 A 3.101 3.101 0 0 1 261.952 41.704 Q 261.813 42.533 261.279 44.017 A 37.369 37.369 0 0 1 261.102 44.5 Q 261.602 44.1 262.052 43.75 Q 262.502 43.4 262.902 43.2 Q 263.902 40.7 264.952 38.1 Q 266.002 35.5 267.102 32.8 Q 259.502 34.5 250.302 43.7 Q 240.702 53.3 240.702 60.6 Q 240.702 65 243.402 65 Z M 118.602 40.6 A 17.96 17.96 0 0 0 114.276 42.576 Q 109.903 45.287 105.802 50.8 A 18.719 18.719 0 0 1 105.657 49.828 A 21.563 21.563 0 0 1 105.502 47.2 Q 105.502 44.8 105.902 42.55 Q 106.302 40.3 107.202 38.3 A 25.616 25.616 0 0 1 108.162 36.288 Q 109.428 33.929 110.796 32.868 A 3.726 3.726 0 0 1 113.102 32 A 2.743 2.743 0 0 1 114.015 32.155 Q 116.252 32.939 117.799 37.678 A 35.025 35.025 0 0 1 118.602 40.6 Z M 115.123 55.454 A 55.265 55.265 0 0 0 116.102 53.1 Q 118.702 46.5 118.702 43.4 Q 116.661 43.678 112.47 46.968 A 58.91 58.91 0 0 0 111.802 47.5 A 53.75 53.75 0 0 0 109.779 49.204 Q 106.935 51.733 106.102 53.4 Q 108.012 60.314 110.667 61.518 A 2.875 2.875 0 0 0 111.202 61.7 Q 113.13 59.933 115.123 55.454 Z M 104.302 66.4 A 4.794 4.794 0 0 0 106.285 65.926 Q 107.882 65.2 109.718 63.36 A 25.598 25.598 0 0 0 110.802 62.2 A 3.654 3.654 0 0 1 108.675 61.086 Q 106.78 59.222 105.402 54.3 A 41.09 41.09 0 0 0 103.958 56.9 Q 102.635 59.52 102.255 61.454 A 7.533 7.533 0 0 0 102.102 62.9 Q 102.102 65.295 103.132 66.051 A 1.923 1.923 0 0 0 104.302 66.4 Z M 166.942 49.124 A 90.384 90.384 0 0 0 165.602 52.7 Q 164.565 50.142 161.759 48.062 A 21.181 21.181 0 0 0 158.902 46.3 Q 161.402 45.9 163.952 45.4 Q 166.502 44.9 169.002 44.3 A 121.278 121.278 0 0 0 168.754 44.849 A 110.138 110.138 0 0 0 167.152 48.6 A 99.876 99.876 0 0 0 166.942 49.124 Z M 131.202 41.3 L 132.102 38 A 3.174 3.174 0 0 1 131.796 38.213 Q 131.264 38.543 130.248 38.98 A 26.793 26.793 0 0 1 130.202 39 Q 130.502 39.6 130.752 40.2 Q 131.002 40.8 131.202 41.3 Z M 215.502 41.3 L 216.402 38 A 3.174 3.174 0 0 1 216.096 38.213 Q 215.564 38.543 214.548 38.98 A 26.793 26.793 0 0 1 214.502 39 Q 214.802 39.6 215.052 40.2 Q 215.302 40.8 215.502 41.3 Z" vector-effect="non-scaling-stroke"/></g></svg>